<?xml version="1.0" encoding="UTF-8"?>
<svg xmlns="http://www.w3.org/2000/svg" xmlns:xlink="http://www.w3.org/1999/xlink" width="30px" height="30px" viewBox="0 0 30 30" version="1.1">
<g id="surface1">
<path style=" stroke:none;fill-rule:nonzero;fill:rgb(89.803922%,83.921569%,83.921569%);fill-opacity:1;" d="M 19.273438 10.054688 L 17.195312 10.054688 L 17.195312 8.183594 L 12.800781 8.1875 L 12.804688 10.058594 L 10.726562 10.058594 L 10.726562 11.804688 L 19.273438 11.804688 Z M 13.691406 9.078125 L 16.304688 9.074219 L 16.304688 10.054688 L 13.695312 10.058594 Z M 13.691406 9.078125 "/>
<path style=" stroke:none;fill-rule:nonzero;fill:rgb(89.803922%,83.921569%,83.921569%);fill-opacity:1;" d="M 10.726562 21.816406 L 19.273438 21.816406 L 19.273438 12.25 L 10.726562 12.25 Z M 17.003906 13.558594 L 17.449219 13.558594 L 17.449219 20.507812 L 17.003906 20.507812 Z M 14.777344 13.558594 L 15.222656 13.558594 L 15.222656 20.507812 L 14.777344 20.507812 Z M 12.550781 13.558594 L 12.996094 13.558594 L 12.996094 20.507812 L 12.550781 20.507812 Z M 12.550781 13.558594 "/>
</g>
</svg>
