<svg width="20" height="20" viewBox="0 0 20 20" fill="none" xmlns="http://www.w3.org/2000/svg">
<path fill-rule="evenodd" clip-rule="evenodd" d="M14.1624 4.01979C14.0864 2.70745 12.9981 1.66669 11.6667 1.66669H8.33335L8.18646 1.67093C6.87412 1.74697 5.83335 2.83529 5.83335 4.16669V5.00002H4.16668C2.78597 5.00002 1.66668 6.11931 1.66668 7.50002V10.8154C1.66644 10.8269 1.66644 10.8385 1.66668 10.85V15C1.66668 16.3807 2.78597 17.5 4.16668 17.5H15.8334C17.2141 17.5 18.3334 16.3807 18.3334 15V10.8499C18.3336 10.8384 18.3336 10.827 18.3334 10.8155V7.50002C18.3334 6.11931 17.2141 5.00002 15.8334 5.00002H14.1667V4.16669L14.1624 4.01979ZM16.6667 10.311V7.50002C16.6667 7.03978 16.2936 6.66669 15.8334 6.66669H13.3334H6.66668H4.16668C3.70645 6.66669 3.33335 7.03978 3.33335 7.50002V10.311C7.56034 12.2735 12.4397 12.2735 16.6667 10.311ZM3.33335 12.13V15C3.33335 15.4603 3.70645 15.8334 4.16668 15.8334H15.8334C16.2936 15.8334 16.6667 15.4603 16.6667 15V12.13C12.3978 13.8894 7.60224 13.8894 3.33335 12.13ZM12.5 5.00002V4.16669C12.5 3.73932 12.1783 3.3871 11.7639 3.33896L11.6667 3.33335H8.33335C7.90599 3.33335 7.55376 3.65505 7.50562 4.0695L7.50002 4.16669V5.00002H12.5ZM10 9.16669C10.4274 9.16669 10.7796 9.48839 10.8277 9.90284L10.8334 10.0084C10.8334 10.4686 10.4603 10.8417 10 10.8417C9.57265 10.8417 9.22043 10.52 9.17229 10.1055L9.16668 10C9.16668 9.53978 9.53978 9.16669 10 9.16669Z" fill="#A6A6AA"/>
</svg>
