<svg width="16" height="18" viewBox="0 0 16 18" fill="none" xmlns="http://www.w3.org/2000/svg">
<path fill-rule="evenodd" clip-rule="evenodd" d="M3 0.666626C3.42736 0.666626 3.77959 0.988326 3.82773 1.40277L3.83333 1.49996V2.39069L14.726 3.16874C15.1761 3.20089 15.5125 3.58293 15.4998 4.02278L15.4916 4.11781L14.6583 9.95114C14.6042 10.3301 14.3004 10.6191 13.9278 10.6613L13.8333 10.6666H3.83333V12.3333H12.1667C13.5474 12.3333 14.6667 13.4526 14.6667 14.8333C14.6667 16.214 13.5474 17.3333 12.1667 17.3333C10.786 17.3333 9.66667 16.214 9.66667 14.8333C9.66667 14.5411 9.7168 14.2606 9.80892 14H5.35775C5.44987 14.2606 5.5 14.5411 5.5 14.8333C5.5 16.214 4.38071 17.3333 3 17.3333C1.61929 17.3333 0.5 16.214 0.5 14.8333C0.5 13.7448 1.19567 12.8187 2.16667 12.4755V9.83374C2.16667 9.83359 2.16667 9.83344 2.16667 9.83329C2.16667 9.83314 2.16667 9.83299 2.16667 9.83284V2.33329H1.33333C0.90597 2.33329 0.553744 2.01159 0.505606 1.59714L0.5 1.49996C0.5 1.0726 0.8217 0.72037 1.23615 0.672232L1.33333 0.666626H3ZM3.83333 8.99996H13.1108L13.715 4.76746L3.83333 4.06161V8.99996ZM11.3333 14.8333C11.3333 14.3731 11.7064 14 12.1667 14C12.6269 14 13 14.3731 13 14.8333C13 15.2935 12.6269 15.6666 12.1667 15.6666C11.7064 15.6666 11.3333 15.2935 11.3333 14.8333ZM2.16667 14.8333C2.16667 14.3731 2.53976 14 3 14C3.46024 14 3.83333 14.3731 3.83333 14.8333C3.83333 15.2935 3.46024 15.6666 3 15.6666C2.53976 15.6666 2.16667 15.2935 2.16667 14.8333Z" fill="#88898C"/>
</svg>
