<svg width="18" height="18" viewBox="0 0 18 18" fill="none" xmlns="http://www.w3.org/2000/svg">
<path fill-rule="evenodd" clip-rule="evenodd" d="M13 1C13 0.447715 12.5523 0 12 0H3L2.82373 0.00509269C1.24892 0.0963391 0 1.40232 0 3V15L0.00509269 15.1763C0.0963391 16.7511 1.40232 18 3 18H15L15.1763 17.9949C16.7511 17.9037 18 16.5977 18 15V9L17.9933 8.88338C17.9355 8.38604 17.5128 8 17 8C16.4477 8 16 8.44771 16 9V15L15.9933 15.1166C15.9355 15.614 15.5128 16 15 16H3L2.88338 15.9933C2.38604 15.9355 2 15.5128 2 15V3L2.00673 2.88338C2.06449 2.38604 2.48716 2 3 2H12L12.1166 1.99327C12.614 1.93551 13 1.51284 13 1ZM17.7071 2.29289C17.3166 1.90237 16.6834 1.90237 16.2929 2.29289L9 9.585L6.70711 7.29289L6.6129 7.2097C6.22061 6.90468 5.65338 6.93241 5.29289 7.29289C4.90237 7.68342 4.90237 8.31658 5.29289 8.70711L8.29289 11.7071L8.3871 11.7903C8.77939 12.0953 9.34662 12.0676 9.70711 11.7071L17.7071 3.70711L17.7903 3.6129C18.0953 3.22061 18.0676 2.65338 17.7071 2.29289Z" fill="#A6A6AA"/>
</svg>
