<svg width="20" height="20" viewBox="0 0 20 20" fill="none" xmlns="http://www.w3.org/2000/svg">
<g clip-path="url(#clip0_2308_3714)">
<path d="M18.75 18.125C18.75 18.4565 18.6183 18.7745 18.3839 19.0089C18.1495 19.2433 17.8315 19.375 17.5 19.375H2.5C2.16848 19.375 1.85054 19.2433 1.61612 19.0089C1.3817 18.7745 1.25 18.4565 1.25 18.125V1.875C1.25 1.54348 1.3817 1.22554 1.61612 0.991117C1.85054 0.756696 2.16848 0.625 2.5 0.625H15C15.3254 0.625467 15.6378 0.752823 15.8708 0.98L18.3708 3.3825C18.4905 3.49871 18.5857 3.63769 18.6508 3.79125C18.7159 3.94482 18.7497 4.10986 18.75 4.27667V18.125Z" stroke="#88898C" stroke-width="1.5" stroke-linecap="round" stroke-linejoin="round"/>
<path d="M6.88916 8.755V15.31C6.88916 15.4131 6.93005 15.5119 7.00285 15.5849C7.07565 15.6579 7.17442 15.699 7.27749 15.6992H12.7225C12.8256 15.699 12.9243 15.6579 12.9971 15.5849C13.0699 15.5119 13.1108 15.4131 13.1108 15.31V8.755" stroke="#88898C" stroke-width="1.5" stroke-linecap="round" stroke-linejoin="round"/>
<path d="M13.1108 11.0883H15.0558C15.1589 11.0881 15.2577 11.047 15.3305 10.9741C15.4033 10.9011 15.4442 10.8022 15.4442 10.6992V7.97668C15.4442 7.56816 15.3637 7.16364 15.2074 6.78621C15.051 6.40879 14.8219 6.06585 14.533 5.77699C14.2442 5.48812 13.9012 5.25898 13.5238 5.10264C13.1464 4.94631 12.7419 4.86584 12.3333 4.86584H11.5558C11.5558 5.27848 11.3919 5.67421 11.1002 5.96598C10.8084 6.25776 10.4126 6.42168 10 6.42168C9.58738 6.42168 9.19165 6.25776 8.89987 5.96598C8.6081 5.67421 8.44418 5.27848 8.44418 4.86584H7.66668C6.84164 4.86584 6.05038 5.19359 5.46699 5.77699C4.88359 6.36038 4.55585 7.15163 4.55585 7.97668V10.6992C4.55585 10.8022 4.59673 10.9011 4.66954 10.9741C4.74234 11.047 4.84111 11.0881 4.94418 11.0883H6.88918" stroke="#88898C" stroke-width="1.5" stroke-linecap="round" stroke-linejoin="round"/>
</g>
<defs>
<clipPath id="clip0_2308_3714">
<rect width="20" height="20" fill="white"/>
</clipPath>
</defs>
</svg>
