<svg width="105" height="104" viewBox="0 0 105 104" fill="none" xmlns="http://www.w3.org/2000/svg">
<path fill-rule="evenodd" clip-rule="evenodd" d="M28.5833 82.5333C15.4181 82.0438 4.83142 71.6104 4.83142 58.7179C4.83142 46.7688 13.9255 36.9321 25.738 35.1668L26.2665 35.0969L26.5789 34.2922C29.4784 27.2498 35.5687 21.6625 43.3162 19.0048L44.3828 18.6606C53.964 15.7622 64.5271 17.6828 72.1655 23.7481C78.2265 28.5608 81.7383 35.4269 82.0159 42.6239L82.0321 43.5599L82.4691 43.5725C92.5082 44.0377 100.565 52.0942 101.03 62.1333L101.051 63.0513C101.051 73.5131 92.8124 82.0507 82.4691 82.53L81.5511 82.5513H29.5511L28.5833 82.5333ZM66.7762 30.5353C61.3867 26.2558 53.7794 24.8726 46.8923 26.956C40.1133 29.0068 35.1472 34.0726 33.7792 40.167C33.3352 42.1453 31.5787 43.5513 29.5511 43.5513C20.6432 43.5513 13.4981 50.3858 13.4981 58.7179C13.4981 66.7813 20.1897 73.4421 28.6947 73.8634L29.5511 73.8846H81.5511C87.2949 73.8846 91.9946 69.4146 92.3614 63.7635L92.3845 63.0513C92.3845 57.3075 87.9145 52.6078 82.2634 52.241L81.5511 52.2179H77.2178C74.4417 52.2179 72.3817 49.6442 72.9897 46.9355C74.339 40.9244 72.0114 34.6923 66.7762 30.5353Z" fill="#D3D3D3"/>
</svg>
