<svg width="20" height="20" viewBox="0 0 20 20" fill="none" xmlns="http://www.w3.org/2000/svg">
<path d="M4.68435 12.4689L5.60169 12.6125C6.27886 12.7186 6.76246 13.3388 6.71259 14.0376L6.64501 14.9847C6.62532 15.2606 6.77231 15.5203 7.01575 15.6405L7.69423 15.9748C7.93768 16.0949 8.22836 16.0499 8.42718 15.8627L9.10895 15.2183C9.61158 14.743 10.3872 14.743 10.8905 15.2183L11.5722 15.8627C11.7711 16.0506 12.0611 16.0949 12.3052 15.9748L12.985 15.6398C13.2278 15.5203 13.3741 15.2612 13.3544 14.986L13.2868 14.0376C13.237 13.3388 13.7206 12.7186 14.3977 12.6125L15.3151 12.4689C15.5821 12.4273 15.7974 12.2226 15.8577 11.9527L16.0251 11.2023C16.0854 10.9324 15.9785 10.6525 15.7554 10.4968L14.9896 9.9605C14.4246 9.56447 14.2521 8.7912 14.5933 8.18374L15.0559 7.3608C15.1904 7.12117 15.1681 6.82113 14.9995 6.60499L14.5303 6.0029C14.3616 5.78676 14.0808 5.69748 13.8223 5.7787L12.9351 6.05659C12.2796 6.26199 11.5808 5.91765 11.3288 5.26588L10.9889 4.38455C10.8892 4.12679 10.6457 3.95764 10.3747 3.95831L9.62274 3.96033C9.35174 3.961 9.10895 4.13149 9.01053 4.38992L8.67916 5.26118C8.42981 5.91698 7.7277 6.26401 7.07021 6.05727L6.14631 5.76729C5.88712 5.6854 5.60497 5.77535 5.43633 5.99283L4.97044 6.5956C4.80181 6.81375 4.78146 7.11446 4.91861 7.35409L5.39171 8.17904C5.74014 8.78718 5.56953 9.56782 5.00128 9.96587L4.24471 10.4961C4.02161 10.6525 3.91465 10.9324 3.97502 11.2016L4.14235 11.952C4.20206 12.2226 4.41729 12.4273 4.68435 12.4689Z" stroke="#A6A6AA" stroke-width="1.5" stroke-linecap="round" stroke-linejoin="round"/>
<path d="M11.3259 8.67409C12.0581 9.40624 12.0581 10.5937 11.3259 11.3259C10.5938 12.058 9.4063 12.058 8.67415 11.3259C7.942 10.5937 7.942 9.40624 8.67415 8.67409C9.4063 7.94194 10.5938 7.94194 11.3259 8.67409Z" stroke="#A6A6AA" stroke-width="1.5" stroke-linecap="round" stroke-linejoin="round"/>
</svg>
