<svg width="24" height="24" viewBox="0 0 24 24" fill="none" xmlns="http://www.w3.org/2000/svg">
<path fill-rule="evenodd" clip-rule="evenodd" d="M15.824 2.76667C14.6126 2.26284 13.3138 2.00234 12.0018 2C11.4495 1.99902 11.001 2.44594 11 2.99822C10.999 3.5505 11.4459 3.99902 11.9982 4C13.0478 4.00187 14.0868 4.21027 15.056 4.61333C15.5659 4.82541 16.1513 4.58395 16.3633 4.074C16.5754 3.56406 16.3339 2.97875 15.824 2.76667ZM9.48397 3.30754C9.27274 2.79724 8.68783 2.5548 8.17754 2.76603C6.96429 3.26824 5.86183 4.00447 4.93309 4.9327C4.54246 5.32311 4.54228 5.95628 4.9327 6.34691C5.32311 6.73754 5.95628 6.73772 6.34691 6.3473C7.08991 5.60472 7.97187 5.01574 8.94247 4.61397C9.45276 4.40274 9.6952 3.81783 9.48397 3.30754ZM4.074 7.63667C3.56406 7.42459 2.97875 7.66606 2.76667 8.176C2.26284 9.38744 2.00234 10.6862 2 11.9982C1.99902 12.5505 2.44594 12.999 2.99822 13C3.5505 13.001 3.99902 12.5541 4 12.0018C4.00187 10.9522 4.21027 9.91316 4.61333 8.94401C4.82541 8.43406 4.58395 7.84875 4.074 7.63667ZM3.30754 14.516C3.81783 14.3048 4.40274 14.5472 4.61397 15.0575C5.01574 16.0281 5.60472 16.9101 6.3473 17.6531C6.73772 18.0437 6.73754 18.6769 6.34691 19.0673C5.95628 19.4577 5.32311 19.4575 4.9327 19.0669C4.00447 18.1382 3.26824 17.0357 2.76603 15.8225C2.5548 15.3122 2.79724 14.7273 3.30754 14.516ZM8.94401 19.3867C8.43406 19.1746 7.84875 19.4161 7.63667 19.926C7.42459 20.4359 7.66606 21.0213 8.176 21.2333C9.38744 21.7372 10.6862 21.9977 11.9982 22C12.5505 22.001 12.999 21.5541 13 21.0018C13.001 20.4495 12.5541 20.001 12.0018 20C10.9522 19.9981 9.91316 19.7897 8.94401 19.3867ZM17.6531 17.6527C18.0437 17.2623 18.6769 17.2625 19.0673 17.6531C19.4577 18.0437 19.4575 18.6769 19.0669 19.0673C18.1382 19.9955 17.0357 20.7318 15.8225 21.234C15.3122 21.4452 14.7273 21.2028 14.516 20.6925C14.3048 20.1822 14.5472 19.5973 15.0575 19.386C16.0281 18.9843 16.9101 18.3953 17.6531 17.6527ZM22 12.0018C22.001 11.4495 21.5541 11.001 21.0018 11C20.4495 10.999 20.001 11.4459 20 11.9982C19.9981 13.0478 19.7897 14.0868 19.3867 15.056C19.1746 15.5659 19.4161 16.1513 19.926 16.3633C20.4359 16.5754 21.0213 16.3339 21.2333 15.824C21.7372 14.6126 21.9977 13.3138 22 12.0018ZM17.6531 4.9327C18.0437 4.54228 18.6769 4.54246 19.0673 4.93309C19.9955 5.86183 20.7318 6.96429 21.234 8.17754C21.4452 8.68783 21.2028 9.27274 20.6925 9.48397C20.1822 9.6952 19.5973 9.45276 19.386 8.94247C18.9843 7.97187 18.3953 7.08991 17.6527 6.34691C17.2623 5.95628 17.2625 5.32311 17.6531 4.9327Z" fill="#6B7280"/>
</svg>
