<svg width="10" height="12" viewBox="0 0 10 12" fill="none" xmlns="http://www.w3.org/2000/svg">
<path d="M9.24998 0.999445H6.74985C6.72889 0.998297 6.70848 0.992275 6.69025 0.981859C6.67203 0.971443 6.65648 0.956919 6.64485 0.939442C6.47602 0.653308 6.23548 0.416157 5.94698 0.251405C5.65848 0.0866539 5.33199 0 4.99976 0C4.66754 0 4.34105 0.0866539 4.05255 0.251405C3.76405 0.416157 3.52351 0.653308 3.35468 0.939442C3.34305 0.956919 3.3275 0.971443 3.30927 0.981859C3.29104 0.992275 3.27064 0.998297 3.24968 0.999445H0.74955C0.550627 0.999445 0.359852 1.07847 0.219193 1.21913C0.0785334 1.35979 -0.000488281 1.55056 -0.000488281 1.74948V11.25C-0.000488281 11.4489 0.0785334 11.6397 0.219193 11.7803C0.359852 11.921 0.550627 12 0.74955 12H9.24998C9.4489 12 9.63968 11.921 9.78033 11.7803C9.92099 11.6397 10 11.4489 10 11.25V1.74948C10 1.55056 9.92099 1.35979 9.78033 1.21913C9.63968 1.07847 9.4489 0.999445 9.24998 0.999445V0.999445ZM8.49994 8.1298C8.50056 8.42861 8.39413 8.71775 8.19993 8.94485L7.23988 10.0649C7.12185 10.2011 6.97597 10.3105 6.81207 10.3855C6.64818 10.4606 6.47009 10.4996 6.28983 10.4999H1.7496C1.68329 10.4999 1.6197 10.4736 1.57281 10.4267C1.52593 10.3798 1.49959 10.3162 1.49959 10.2499V2.74953C1.49959 2.68323 1.52593 2.61963 1.57281 2.57275C1.6197 2.52586 1.68329 2.49952 1.7496 2.49952H8.24993C8.31624 2.49952 8.37983 2.52586 8.42671 2.57275C8.4736 2.61963 8.49994 2.68323 8.49994 2.74953V8.1298Z" fill="white"/>
<path d="M6.99973 4.12451H2.99953C2.90007 4.12451 2.80468 4.16402 2.73435 4.23435C2.66402 4.30468 2.62451 4.40007 2.62451 4.49953C2.62451 4.59899 2.66402 4.69438 2.73435 4.76471C2.80468 4.83504 2.90007 4.87455 2.99953 4.87455H6.99973C7.09919 4.87455 7.19458 4.83504 7.26491 4.76471C7.33524 4.69438 7.37475 4.59899 7.37475 4.49953C7.37475 4.40007 7.33524 4.30468 7.26491 4.23435C7.19458 4.16402 7.09919 4.12451 6.99973 4.12451V4.12451Z" fill="white"/>
<path d="M6.99973 5.87476H2.99953C2.90007 5.87476 2.80468 5.91427 2.73435 5.9846C2.66402 6.05493 2.62451 6.15031 2.62451 6.24977C2.62451 6.34924 2.66402 6.44462 2.73435 6.51495C2.80468 6.58528 2.90007 6.62479 2.99953 6.62479H6.99973C7.09919 6.62479 7.19458 6.58528 7.26491 6.51495C7.33524 6.44462 7.37475 6.34924 7.37475 6.24977C7.37475 6.15031 7.33524 6.05493 7.26491 5.9846C7.19458 5.91427 7.09919 5.87476 6.99973 5.87476V5.87476Z" fill="white"/>
<path d="M5.24964 7.62476H2.99953C2.90007 7.62476 2.80468 7.66427 2.73435 7.7346C2.66402 7.80493 2.62451 7.90031 2.62451 7.99977C2.62451 8.09924 2.66402 8.19462 2.73435 8.26495C2.80468 8.33528 2.90007 8.37479 2.99953 8.37479H5.24964C5.34911 8.37479 5.44449 8.33528 5.51482 8.26495C5.58515 8.19462 5.62466 8.09924 5.62466 7.99977C5.62466 7.90031 5.58515 7.80493 5.51482 7.7346C5.44449 7.66427 5.34911 7.62476 5.24964 7.62476V7.62476Z" fill="white"/>
</svg>
