<svg width="19" height="18" viewBox="0 0 19 18" fill="none" xmlns="http://www.w3.org/2000/svg">
<path fill-rule="evenodd" clip-rule="evenodd" d="M2.33329 4.83335C2.33329 2.53217 4.19877 0.666687 6.49996 0.666687C8.80115 0.666687 10.6666 2.53217 10.6666 4.83335C10.6666 7.13454 8.80115 9.00002 6.49996 9.00002C4.19877 9.00002 2.33329 7.13454 2.33329 4.83335ZM8.99996 4.83335C8.99996 3.45264 7.88067 2.33335 6.49996 2.33335C5.11925 2.33335 3.99996 3.45264 3.99996 4.83335C3.99996 6.21407 5.11925 7.33335 6.49996 7.33335C7.88067 7.33335 8.99996 6.21407 8.99996 4.83335ZM8.16663 10.6667C10.4073 10.6667 12.2348 12.4353 12.3294 14.6526L12.3333 14.8334V16.5C12.3333 16.9603 11.9602 17.3334 11.5 17.3334C11.0726 17.3334 10.7204 17.0117 10.6722 16.5972L10.6666 16.5V14.8334C10.6666 13.502 9.62586 12.4136 8.31352 12.3376L8.16663 12.3334H4.83329C3.50189 12.3334 2.41358 13.3741 2.33754 14.6865L2.33329 14.8334V16.5C2.33329 16.9603 1.9602 17.3334 1.49996 17.3334C1.0726 17.3334 0.72037 17.0117 0.672232 16.5972L0.666626 16.5V14.8334C0.666626 12.5927 2.43521 10.7652 4.65255 10.6705L4.83329 10.6667H8.16663ZM17.9225 5.91076C17.5971 5.58533 17.0695 5.58533 16.744 5.91076L14 8.65419L12.9225 7.57743L12.844 7.50811C12.5171 7.25392 12.0444 7.27703 11.744 7.57743C11.4186 7.90287 11.4186 8.43051 11.744 8.75594L13.4107 10.4226L13.4892 10.4919C13.8161 10.7461 14.2888 10.723 14.5892 10.4226L17.9225 7.08928L17.9919 7.01077C18.2461 6.68386 18.2229 6.21117 17.9225 5.91076Z" fill="#88898C"/>
</svg>
