<svg width="19" height="19" viewBox="0 0 19 19" fill="none" xmlns="http://www.w3.org/2000/svg">
<path fill-rule="evenodd" clip-rule="evenodd" d="M11.5 0.666687C11.9273 0.666687 12.2795 0.988387 12.3277 1.40284L12.3333 1.50002V2.33335H13.1666C14.498 2.33335 15.5863 3.37412 15.6624 4.68646L15.6666 4.83335V8.16669C15.6666 8.5694 15.381 8.90539 15.0012 8.98309C14.947 8.99419 14.8908 9.00002 14.8333 9.00002H2.33329V14.8334C2.33329 15.2607 2.65499 15.6129 3.06944 15.6611L3.16663 15.6667H8.82913C9.28936 15.6667 9.66246 16.0398 9.66246 16.5C9.66246 16.9274 9.34076 17.2796 8.92631 17.3277L8.82913 17.3334H3.16663C1.83523 17.3334 0.746909 16.2926 0.67087 14.9802L0.666626 14.8334V8.16669V4.83335C0.666626 3.50195 1.70739 2.41364 3.01973 2.3376L3.16663 2.33335H3.99996V1.50002C3.99996 1.03978 4.37306 0.666687 4.83329 0.666687C5.26066 0.666687 5.61288 0.988387 5.66102 1.40284L5.66663 1.50002V2.33335H10.6666V1.50002C10.6666 1.03978 11.0397 0.666687 11.5 0.666687ZM14 4.83335V7.33335H2.33329V4.83335L2.3389 4.73617C2.38704 4.32172 2.73926 4.00002 3.16663 4.00002H3.99996V4.83335L4.00557 4.93054C4.0537 5.34499 4.40593 5.66669 4.83329 5.66669C5.29353 5.66669 5.66663 5.29359 5.66663 4.83335V4.00002H10.6666V4.83335L10.6722 4.93054C10.7204 5.34499 11.0726 5.66669 11.5 5.66669C11.9602 5.66669 12.3333 5.29359 12.3333 4.83335V4.00002H13.1666L13.2638 4.00563C13.6783 4.05376 14 4.40599 14 4.83335ZM14 9.83335C11.6988 9.83335 9.83329 11.6988 9.83329 14C9.83329 16.3012 11.6988 18.1667 14 18.1667C16.3011 18.1667 18.1666 16.3012 18.1666 14C18.1666 11.6988 16.3011 9.83335 14 9.83335ZM14 11.5C15.3807 11.5 16.5 12.6193 16.5 14C16.5 15.3807 15.3807 16.5 14 16.5C12.6192 16.5 11.5 15.3807 11.5 14C11.5 12.6193 12.6192 11.5 14 11.5ZM14.8277 12.6495C14.7795 12.2351 14.4273 11.9134 14 11.9134C13.5397 11.9134 13.1666 12.2865 13.1666 12.7467V14L13.1739 14.1096C13.1978 14.2901 13.2805 14.459 13.4107 14.5893L14.244 15.4226L14.3225 15.4919C14.6495 15.7461 15.1221 15.723 15.4225 15.4226L15.4919 15.3441C15.7461 15.0172 15.723 14.5445 15.4225 14.2441L14.8333 13.6542V12.7467L14.8277 12.6495Z" fill="#88898C"/>
</svg>
