<svg width="20" height="20" viewBox="0 0 20 20" fill="none" xmlns="http://www.w3.org/2000/svg">
<path fill-rule="evenodd" clip-rule="evenodd" d="M10 3.33329C6.77834 3.33329 4.16667 5.94496 4.16667 9.16663C4.16667 11.005 5.28006 12.7233 6.83743 14.073L9.70528 16.5585C9.87442 16.705 10.1256 16.705 10.2947 16.5585L13.1626 14.073C14.7199 12.7233 15.8333 11.005 15.8333 9.16663C15.8333 5.94496 13.2217 3.33329 10 3.33329ZM2.5 9.16663C2.5 5.02449 5.85786 1.66663 10 1.66663C14.1421 1.66663 17.5 5.02449 17.5 9.16663C17.5 11.6886 15.9919 13.8264 14.2541 15.3325L11.3863 17.8179C10.5907 18.5074 9.40931 18.5074 8.61373 17.8179L5.74588 15.3325C4.00814 13.8264 2.5 11.6886 2.5 9.16663Z" fill="#88898C"/>
<path fill-rule="evenodd" clip-rule="evenodd" d="M9.58329 7.50004C8.89294 7.50004 8.33329 8.05968 8.33329 8.75004C8.33329 9.4404 8.89294 10 9.58329 10C10.2736 10 10.8333 9.4404 10.8333 8.75004C10.8333 8.05968 10.2736 7.50004 9.58329 7.50004ZM6.66663 8.75004C6.66663 7.13921 7.97246 5.83337 9.58329 5.83337C11.1941 5.83337 12.5 7.13921 12.5 8.75004C12.5 9.25234 12.373 9.72498 12.1494 10.1376L13.0892 11.0775C13.4147 11.4029 13.4147 11.9305 13.0892 12.256C12.7638 12.5814 12.2361 12.5814 11.9107 12.256L10.9709 11.3161C10.5582 11.5397 10.0856 11.6667 9.58329 11.6667C7.97246 11.6667 6.66663 10.3609 6.66663 8.75004Z" fill="#88898C"/>
</svg>
