<svg width="20" height="20" viewBox="0 0 20 20" fill="none" xmlns="http://www.w3.org/2000/svg">
<path fill-rule="evenodd" clip-rule="evenodd" d="M14.1667 18.3335H5.83337C4.45004 18.3335 3.33337 17.2085 3.33337 15.8335V4.16682C3.33337 2.78349 4.45004 1.66682 5.83337 1.66682H11.6512L11.6667 1.66669V1.66599C11.8834 1.65766 12.1 1.74932 12.2584 1.90766L16.425 6.07432C16.5059 6.15519 16.5698 6.25544 16.6116 6.36593C16.6438 6.45016 16.6629 6.54129 16.6662 6.63693C16.6665 6.6466 16.6667 6.65629 16.6667 6.66599V6.66669V15.8327C16.6667 17.2077 15.5417 18.3327 14.1667 18.3327V18.3335ZM5.83337 3.33349H10.8334V5.83335C10.8334 6.75002 11.575 7.50002 12.5 7.50002H15V15.8335C15 16.2918 14.625 16.6668 14.1667 16.6668H5.83337C5.36671 16.6668 5.00004 16.2918 5.00004 15.8335V4.16682C5.00004 3.70016 5.36671 3.33349 5.83337 3.33349ZM12.5 5.83335V4.50849L13.8249 5.83335H12.5ZM7.50004 6.66669H8.33337C8.79171 6.66669 9.16671 6.29169 9.16671 5.83335C9.16671 5.36669 8.79171 5.00002 8.33337 5.00002H7.50004C7.03337 5.00002 6.66671 5.36669 6.66671 5.83335C6.66671 6.29169 7.03337 6.66669 7.50004 6.66669ZM12.5 11.6667H7.50004C7.03337 11.6667 6.66671 11.2917 6.66671 10.8334C6.66671 10.3667 7.03337 10 7.50004 10H12.5C12.9584 10 13.3334 10.3667 13.3334 10.8334C13.3334 11.2917 12.9584 11.6667 12.5 11.6667ZM10 14.1667C10 14.625 10.3667 15 10.8334 15H12.5C12.9584 15 13.3334 14.625 13.3334 14.1667C13.3334 13.7 12.9584 13.3334 12.5 13.3334H10.8334C10.3667 13.3334 10 13.7 10 14.1667Z" fill="#A6A6AA"/>
</svg>
