<svg width="10" height="12" viewBox="0 0 10 12" fill="none" xmlns="http://www.w3.org/2000/svg">
<path fill-rule="evenodd" clip-rule="evenodd" d="M0 0V12H1.5V7H5.5C5.77615 7 6 6.77615 6 6.5V0.5C6 0.223857 5.77615 0 5.5 0H1.5H0.75H0ZM6 8H3.5V8.5C3.5 8.77615 3.72386 9 4 9H9.5C9.6844 9 9.85385 8.8985 9.94085 8.73595C10.0279 8.57335 10.0183 8.3761 9.91605 8.22265L8.10095 5.5L9.91605 2.77735C10.0183 2.62392 10.0279 2.42665 9.94085 2.26407C9.85385 2.10149 9.6844 2 9.5 2H7V7C7 7.55 6.55 8 6 8Z" fill="white"/>
</svg>
