<svg width="20" height="20" viewBox="0 0 20 20" fill="none" xmlns="http://www.w3.org/2000/svg">
<path fill-rule="evenodd" clip-rule="evenodd" d="M16.8166 16.6666H3.18329C2.50298 16.678 1.89835 16.2349 1.70426 15.5828C1.51017 14.9307 1.77414 14.2291 2.34996 13.8666L9.16663 9.54162V9.05829C7.48908 8.62515 6.42305 6.97908 6.71395 5.27112C7.00485 3.56316 8.55569 2.36281 10.282 2.50942C12.0084 2.65604 13.3346 4.10073 13.3333 5.83329C13.3333 6.29352 12.9602 6.66662 12.5 6.66662C12.0397 6.66662 11.6666 6.29352 11.6666 5.83329C11.6666 4.91281 10.9204 4.16662 9.99996 4.16662C9.07948 4.16662 8.33329 4.91281 8.33329 5.83329C8.33329 6.75376 9.07948 7.49995 9.99996 7.49995C10.4602 7.49995 10.8333 7.87305 10.8333 8.33329V9.54162L17.6333 13.8666C18.2091 14.2291 18.4731 14.9307 18.279 15.5828C18.0849 16.2349 17.4803 16.678 16.8 16.6666H16.8166ZM3.69162 15H16.3083L9.99996 10.9916L3.69162 15Z" fill="#88898C"/>
</svg>
