<svg width="14" height="13" viewBox="0 0 14 13" fill="none" xmlns="http://www.w3.org/2000/svg">
<path fill-rule="evenodd" clip-rule="evenodd" d="M6.97813 1.66567L7.0027 1.68798L7.02555 1.66754C7.88211 0.915649 9.03009 0.557406 10.1806 0.707361L10.3449 0.732253C11.8237 0.987615 13.035 2.04912 13.4824 3.48148C13.9297 4.91384 13.5377 6.47609 12.4672 7.5276L12.4354 7.55465L7.46915 12.4737C7.22932 12.7112 6.85419 12.7295 6.59354 12.5285L6.5309 12.4737L1.52803 7.51865L1.41363 7.40237C0.426764 6.3555 0.0752711 4.85371 0.505079 3.4714C0.95208 2.03379 2.16842 0.968928 3.6525 0.715932C4.86176 0.509787 6.08188 0.871111 6.97813 1.66567ZM2.46915 6.57431L7.00003 11.0613L11.5309 6.57431L11.5567 6.55065L11.6365 6.46872C12.2713 5.77143 12.493 4.78612 12.2097 3.87896C11.9114 2.92405 11.1038 2.21638 10.118 2.04614C9.13225 1.8759 8.13409 2.27172 7.53287 3.0713C7.26525 3.42723 6.7306 3.42574 6.46496 3.06833C5.86626 2.26279 4.86596 1.86164 3.87657 2.0303C2.88718 2.19897 2.07629 2.90888 1.77829 3.86728C1.49519 4.77777 1.72053 5.766 2.36048 6.46267L2.46915 6.57431Z" fill="#F5F5F5"/>
</svg>
