<svg width="20" height="20" viewBox="0 0 20 20" fill="none" xmlns="http://www.w3.org/2000/svg">
<path fill-rule="evenodd" clip-rule="evenodd" d="M1.66663 10C1.66663 5.39765 5.39759 1.66669 9.99996 1.66669C14.6023 1.66669 18.3333 5.39765 18.3333 10C18.3333 14.6024 14.6023 18.3334 9.99996 18.3334C5.39759 18.3334 1.66663 14.6024 1.66663 10ZM16.6666 10C16.6666 6.31812 13.6819 3.33335 9.99996 3.33335C6.31806 3.33335 3.33329 6.31812 3.33329 10C3.33329 13.6819 6.31806 16.6667 9.99996 16.6667C13.6819 16.6667 16.6666 13.6819 16.6666 10ZM10.0083 5.83335C10.4685 5.83335 10.8416 6.20645 10.8416 6.66669C10.8416 7.09405 10.5199 7.44628 10.1055 7.49441L9.99996 7.50002C9.53972 7.50002 9.16663 7.12692 9.16663 6.66669C9.16663 6.23932 9.48833 5.8871 9.90277 5.83896L10.0083 5.83335ZM10.8277 9.90284C10.7795 9.48839 10.4273 9.16669 9.99996 9.16669H9.16663L9.06944 9.17229C8.65499 9.22043 8.33329 9.57266 8.33329 10C8.33329 10.4603 8.70639 10.8334 9.16663 10.8334V13.3334L9.17223 13.4305C9.22037 13.845 9.5726 14.1667 9.99996 14.1667H10.8333L10.9305 14.1611C11.3449 14.1129 11.6666 13.7607 11.6666 13.3334L11.661 13.2362C11.6166 12.8536 11.313 12.5501 10.9305 12.5056L10.8333 12.5V10L10.8277 9.90284Z" fill="#A6A6AA"/>
</svg>
