<svg width="20" height="20" viewBox="0 0 20 20" fill="none" xmlns="http://www.w3.org/2000/svg">
<path fill-rule="evenodd" clip-rule="evenodd" d="M12.4957 4.85311C12.4197 3.54077 11.3314 2.5 9.99996 2.5H4.16663L4.01973 2.50424C2.70739 2.58028 1.66663 3.6686 1.66663 5V15L1.67087 15.1469C1.74691 16.4592 2.83523 17.5 4.16663 17.5H9.99996L10.1469 17.4958C11.4592 17.4197 12.5 16.3314 12.5 15V13.3333L12.4944 13.2361C12.4462 12.8217 12.094 12.5 11.6666 12.5C11.2064 12.5 10.8333 12.8731 10.8333 13.3333V15L10.8277 15.0972C10.7795 15.5116 10.4273 15.8333 9.99996 15.8333H4.16663L4.06944 15.8277C3.65499 15.7796 3.33329 15.4274 3.33329 15V5L3.3389 4.90282C3.38704 4.48837 3.73926 4.16667 4.16663 4.16667H9.99996L10.0971 4.17227C10.5116 4.22041 10.8333 4.57264 10.8333 5V6.66667L10.8389 6.76385C10.887 7.1783 11.2393 7.5 11.6666 7.5C12.1269 7.5 12.5 7.1269 12.5 6.66667V5L12.4957 4.85311ZM8.99187 8.01075C9.24606 7.68384 9.22295 7.21115 8.92255 6.91074C8.59711 6.58531 8.06947 6.58531 7.74404 6.91074L5.24404 9.41074L5.18061 9.48123C4.99868 9.70661 4.96087 9.98433 5.03192 10.2291L5.0364 10.2442L5.06725 10.3286L5.12962 10.4472C5.17053 10.5123 5.22032 10.572 5.27803 10.6241L7.74404 13.0893L7.82254 13.1586C8.14945 13.4128 8.62214 13.3897 8.92255 13.0893C9.24798 12.7638 9.24798 12.2362 8.92255 11.9107L7.84579 10.8333H16.6666L16.7638 10.8277C17.1783 10.7796 17.5 10.4274 17.5 10L17.4944 9.90282C17.4462 9.48837 17.094 9.16667 16.6666 9.16667H7.84496L8.92255 8.08926L8.99187 8.01075Z" fill="#A6A6AA"/>
</svg>
