<svg width="20" height="20" viewBox="0 0 20 20" fill="none" xmlns="http://www.w3.org/2000/svg">
<path fill-rule="evenodd" clip-rule="evenodd" d="M15.8334 3.33331H4.16673C2.79182 3.33331 1.67614 4.44322 1.66679 5.81593C1.66659 5.82591 1.66657 5.8359 1.66673 5.84587V14.1666C1.66673 15.5474 2.78602 16.6666 4.16673 16.6666H15.8334C17.2141 16.6666 18.3334 15.5474 18.3334 14.1666V5.84338M16.5733 5.44955L10 9.83081L3.42681 5.44955C3.56564 5.18243 3.84487 4.99998 4.16671 4.99998H15.8334C16.1552 4.99998 16.4345 5.18243 16.5733 5.44955ZM3.33338 7.39041L9.5378 11.5267L9.63401 11.582C9.89771 11.711 10.2135 11.6926 10.4623 11.5267L16.6667 7.39041V14.1666C16.6667 14.6269 16.2936 15 15.8334 15H4.16671C3.70648 15 3.33338 14.6269 3.33338 14.1666V7.39041ZM15.8334 3.33331C17.2093 3.33331 18.3256 4.44485 18.3334 5.81895L15.8334 3.33331Z" fill="#A6A6AA"/>
</svg>
