<svg width="18" height="14" viewBox="0 0 18 14" fill="none" xmlns="http://www.w3.org/2000/svg">
<path fill-rule="evenodd" clip-rule="evenodd" d="M17 0C17.5523 0 18 0.447715 18 1C18 1.51284 17.614 1.93551 17.1166 1.99327L17 2H1C0.447715 2 0 1.55228 0 1C0 0.487164 0.38604 0.0644928 0.883379 0.00672773L1 0H17ZM17 6C17.5523 6 18 6.44772 18 7C18 7.51284 17.614 7.93551 17.1166 7.99327L17 8H1C0.447715 8 0 7.55228 0 7C0 6.48716 0.38604 6.06449 0.883379 6.00673L1 6H17ZM18 13C18 12.4477 17.5523 12 17 12H1L0.883379 12.0067C0.38604 12.0645 0 12.4872 0 13C0 13.5523 0.447715 14 1 14H17L17.1166 13.9933C17.614 13.9355 18 13.5128 18 13Z" fill="white"/>
</svg>
