<?xml version="1.0" standalone="no"?>
<!DOCTYPE svg PUBLIC "-//W3C//DTD SVG 20010904//EN"
 "http://www.w3.org/TR/2001/REC-SVG-20010904/DTD/svg10.dtd">
<svg version="1.0" xmlns="http://www.w3.org/2000/svg"
 width="200.000000pt" height="200.000000pt" viewBox="0 0 200.000000 200.000000"
 preserveAspectRatio="xMidYMid meet">

<g transform="translate(0.000000,200.000000) scale(0.100000,-0.100000)"
fill="gray" stroke="none">
<path d="M382 1797 l-162 -162 2 -675 3 -675 57 -3 57 -3 3 -57 3 -57 523 -3
c517 -2 522 -2 522 18 0 20 -6 20 -500 20 l-500 0 0 40 0 40 440 0 c433 0 440
0 440 20 0 20 -7 20 -500 20 l-500 0 0 645 0 644 153 3 152 3 3 153 3 152 432
-2 432 -3 3 -668 c2 -629 3 -668 20 -665 16 3 17 43 22 608 l5 605 35 0 35 0
5 -660 c4 -578 7 -660 20 -660 13 0 15 84 18 683 l2 682 -60 0 -60 0 0 60 0
60 -473 0 -472 0 -163 -163z m148 -32 l0 -115 -117 0 -118 0 115 115 c63 63
116 115 117 115 2 0 3 -52 3 -115z"/>
<path d="M711 1821 c-8 -5 -11 -16 -8 -25 6 -15 38 -16 309 -14 295 3 303 3
303 23 0 19 -7 20 -295 22 -162 2 -301 -1 -309 -6z"/>
<path d="M711 1701 c-8 -5 -11 -16 -8 -25 6 -15 38 -16 309 -14 295 3 303 3
303 23 0 19 -7 20 -295 22 -162 2 -301 -1 -309 -6z"/>
<path d="M987 1583 c-4 -3 -7 -15 -7 -25 0 -17 12 -18 165 -18 143 0 166 2
172 16 3 9 0 20 -8 25 -16 10 -312 12 -322 2z"/>
<path d="M980 1440 c0 -20 5 -20 167 -18 151 3 168 5 171 21 3 16 -10 17 -167
17 -165 0 -171 -1 -171 -20z"/>
<path d="M846 1314 c-205 -50 -355 -237 -356 -444 0 -153 84 -309 210 -390
141 -90 349 -94 486 -9 34 20 36 20 54 4 11 -10 20 -29 20 -42 0 -13 6 -36 14
-51 17 -32 302 -315 333 -331 55 -28 131 -1 158 55 19 40 19 67 1 102 -8 15
-86 97 -173 184 -130 129 -165 158 -195 163 -20 4 -44 15 -53 25 -15 16 -14
22 14 76 53 104 65 216 36 329 -43 165 -192 302 -364 335 -69 13 -112 12 -185
-6z m287 -77 c360 -178 280 -712 -117 -780 -129 -22 -264 22 -358 116 -170
170 -158 462 25 610 91 74 162 98 283 94 83 -3 99 -6 167 -40z m247 -727 c31
0 50 -16 192 -158 145 -145 158 -161 158 -193 0 -40 -20 -64 -63 -74 -26 -7
-40 4 -194 157 -139 138 -165 170 -165 194 0 18 -10 40 -26 56 -25 27 -25 28
-7 48 l18 20 27 -25 c17 -17 37 -25 60 -25z"/>
<path d="M860 1191 c-254 -83 -328 -389 -138 -567 73 -68 126 -89 228 -89 112
0 170 26 244 106 65 70 91 136 90 229 -2 128 -76 246 -189 299 -54 26 -186 38
-235 22z m210 -62 c65 -28 133 -103 156 -171 46 -140 -26 -299 -165 -361 -65
-29 -190 -21 -253 16 -158 93 -195 306 -77 441 89 101 215 129 339 75z"/>
<path d="M814 989 c-3 -6 19 -36 50 -68 l56 -57 -55 -54 c-59 -58 -64 -67 -39
-77 10 -4 34 12 70 48 l54 53 54 -53 c36 -36 60 -52 70 -48 24 10 20 19 -34
72 -27 27 -50 54 -50 60 0 6 23 33 50 60 54 53 58 62 34 72 -10 4 -34 -12 -70
-48 l-54 -53 -53 52 c-53 53 -70 61 -83 41z"/>
</g>
</svg>
