<svg width="12" height="12" viewBox="0 0 12 12" fill="none" xmlns="http://www.w3.org/2000/svg">
<path fill-rule="evenodd" clip-rule="evenodd" d="M6.89645 2.39635C7.64399 1.64881 8.85601 1.64881 9.60355 2.39635C10.3253 3.11812 10.3502 4.27288 9.67822 5.02451L9.60355 5.10346L9.10355 5.60346L4.35355 10.3535C4.27541 10.4316 4.17407 10.4812 4.06572 10.4956L4 10.4999H2C1.74358 10.4999 1.53225 10.3069 1.50336 10.0582L1.5 9.99991V7.99991C1.5 7.8894 1.53658 7.78267 1.60304 7.69589L1.64645 7.64635L6.39645 2.89635C6.39647 2.89633 6.39649 2.89631 6.39652 2.89628L6.89645 2.39635ZM6.74999 3.957L2.5 8.20691V9.49941H3.7925L8.04282 5.24983L6.74999 3.957ZM8.74999 4.54279L7.4571 3.24991L7.60355 3.10346L7.66503 3.04726C8.02421 2.74754 8.55926 2.76627 8.89645 3.10346L8.95264 3.16494C9.25237 3.52411 9.23363 4.05917 8.89645 4.39635L8.74999 4.54279Z" fill="white"/>
</svg>
