<svg width="18" height="18" viewBox="0 0 18 18" fill="none" xmlns="http://www.w3.org/2000/svg">
<path fill-rule="evenodd" clip-rule="evenodd" d="M6.49996 0.666626C4.19877 0.666626 2.33329 2.53211 2.33329 4.83329C2.33329 7.13448 4.19877 8.99996 6.49996 8.99996C8.80115 8.99996 10.6666 7.13448 10.6666 4.83329C10.6666 2.53211 8.80115 0.666626 6.49996 0.666626ZM6.49996 2.33329C7.88067 2.33329 8.99996 3.45258 8.99996 4.83329C8.99996 6.214 7.88067 7.33329 6.49996 7.33329C5.11925 7.33329 3.99996 6.214 3.99996 4.83329C3.99996 3.45258 5.11925 2.33329 6.49996 2.33329ZM12.3294 14.6526C12.2348 12.4352 10.4073 10.6666 8.16663 10.6666H4.83329L4.65255 10.6705C2.43521 10.7651 0.666626 12.5927 0.666626 14.8333V16.5L0.672232 16.5971C0.72037 17.0116 1.0726 17.3333 1.49996 17.3333C1.9602 17.3333 2.33329 16.9602 2.33329 16.5V14.8333L2.33754 14.6864C2.41358 13.3741 3.50189 12.3333 4.83329 12.3333H8.16663L8.31352 12.3375C9.62586 12.4136 10.6666 13.5019 10.6666 14.8333V16.5L10.6722 16.5971C10.7204 17.0116 11.0726 17.3333 11.5 17.3333C11.9602 17.3333 12.3333 16.9602 12.3333 16.5V14.8333L12.3294 14.6526ZM11.526 1.40159C11.6402 0.955738 12.0941 0.686844 12.54 0.801001C14.3837 1.27305 15.6732 2.93433 15.6732 4.83746C15.6732 6.74059 14.3837 8.40187 12.54 8.87392C12.0941 8.98807 11.6402 8.71918 11.526 8.27333C11.4118 7.82747 11.6807 7.37349 12.1266 7.25933C13.2328 6.9761 14.0065 5.97934 14.0065 4.83746C14.0065 3.69558 13.2328 2.69882 12.1266 2.41558C11.6807 2.30143 11.4118 1.84745 11.526 1.40159ZM14.2083 10.8181C13.7627 10.703 13.3081 10.971 13.1931 11.4166C13.078 11.8623 13.346 12.3168 13.7916 12.4318C14.8903 12.7155 15.6601 13.7034 15.6666 14.8381L15.6666 16.5L15.6722 16.5971C15.7204 17.0116 16.0726 17.3333 16.5 17.3333C16.9602 17.3333 17.3333 16.9602 17.3333 16.5V14.8333L17.328 14.6446C17.2363 12.829 15.9783 11.2751 14.2083 10.8181Z" fill="#88898C"/>
</svg>
