<svg width="24" height="24" viewBox="0 0 24 24" fill="none" xmlns="http://www.w3.org/2000/svg">
<path fill-rule="evenodd" clip-rule="evenodd" d="M17 3H7C4.79086 3 3 4.79086 3 7V14.9999V15.0001V17C3 19.2091 4.79086 21 7 21H17C19.2091 21 21 19.2091 21 17V15.001C21 15.0003 21 14.9997 21 14.999V7C21 4.79086 19.2091 3 17 3ZM19 12.5858V7C19 5.89543 18.1046 5 17 5H7C5.89543 5 5 5.89543 5 7V12.5859L7.30662 10.2794C8.57329 9.06057 10.2485 9.01543 11.5577 10.156L11.7071 10.2929L14.0001 12.5859L14.3066 12.2794C15.5733 11.0606 17.2485 11.0154 18.5577 12.156L18.7071 12.2929L19 12.5858ZM13.3016 14.7157L15.2929 16.7071L15.3871 16.7903C15.7794 17.0953 16.3466 17.0676 16.7071 16.7071C17.0976 16.3166 17.0976 15.6834 16.7071 15.2929L15.4142 14L15.7071 13.7071L15.8126 13.6124C16.3053 13.2023 16.8017 13.2347 17.3066 13.7206L19 15.4142V17C19 18.1046 18.1046 19 17 19H7C5.89543 19 5 18.1046 5 17V15.4142L8.70711 11.7071L8.81262 11.6124C9.30527 11.2023 9.80167 11.2347 10.3066 11.7206L13.2842 14.6983C13.2871 14.7013 13.29 14.7042 13.2929 14.7071C13.2958 14.71 13.2987 14.7129 13.3016 14.7157ZM16.01 8C16.01 7.44772 15.5623 7 15.01 7L14.8834 7.00673C14.386 7.06449 14 7.48716 14 8C14 8.55228 14.4477 9 15 9L15.1266 8.99327C15.624 8.93551 16.01 8.51284 16.01 8Z" fill="#ffffff"/>
</svg>
