<svg width="20" height="20" viewBox="0 0 20 20" fill="none" xmlns="http://www.w3.org/2000/svg">
<path fill-rule="evenodd" clip-rule="evenodd" d="M12.4028 2.50563L12.4815 2.50001L12.5753 2.50325L12.6695 2.51738L12.7635 2.54279L17.7635 4.20946C18.0728 4.31258 18.2906 4.58513 18.3277 4.90333L18.3333 5.00003V9.1667C18.3333 9.59406 18.0116 9.94628 17.5971 9.99442L17.5 10H15.8333V15.8334C15.8333 16.712 15.1534 17.4318 14.291 17.4955L14.1666 17.5H5.83329C4.95466 17.5 4.23482 16.8201 4.1712 15.9577L4.16663 15.8334V10H2.49996C2.0726 10 1.72037 9.67833 1.67223 9.26388L1.66663 9.1667V5.00003C1.66663 4.67394 1.85632 4.38112 2.14647 4.24535L2.23644 4.20946L7.23644 2.54279C7.77605 2.36292 8.33329 2.76456 8.33329 3.33336C8.33329 4.25384 9.07948 5.00003 9.99996 5.00003C10.8786 5.00003 11.5984 4.32013 11.6621 3.45775L11.6698 3.25807L11.684 3.16381L11.7152 3.05231L11.7513 2.96688L11.7933 2.89003L11.8497 2.81215L11.9075 2.74586C11.9538 2.70102 12.0016 2.66263 12.0532 2.62977L12.1335 2.58473L12.2189 2.54861L12.3089 2.52204L12.4028 2.50563ZM13.1483 4.42753L13.1428 4.44691C12.6845 5.74029 11.4504 6.6667 9.99996 6.6667C8.54951 6.6667 7.31544 5.74029 6.85716 4.44691L6.85079 4.42753L3.33329 5.60003V8.33336H4.99996C5.42732 8.33336 5.77955 8.65506 5.82769 9.06951L5.83329 9.1667V15.8334H14.1666V9.1667C14.1666 8.73933 14.4883 8.38711 14.9028 8.33897L15 8.33336H16.6666V5.60003L13.1483 4.42753Z" fill="#88898C"/>
</svg>
