<svg width="28" height="12" viewBox="0 0 28 12" fill="none" xmlns="http://www.w3.org/2000/svg">
<path d="M11.7326 3.90909C11.7403 3.96249 11.7648 4.01206 11.8025 4.05066C11.8402 4.08926 11.8892 4.11488 11.9424 4.12385C12.6225 4.2368 13.3106 4.29525 14 4.29865C14.6895 4.29511 15.3776 4.23665 16.0577 4.12385C16.1109 4.11488 16.1599 4.08926 16.1976 4.05066C16.2353 4.01206 16.2598 3.96249 16.2675 3.90909C16.2925 3.73928 16.2925 3.76925 16.8369 0.747645C16.8595 0.622188 16.8334 0.492813 16.7637 0.386028C16.6941 0.279242 16.5862 0.203132 16.4623 0.173291L15.8729 0.0134704C15.7539 -0.0147486 15.6287 0.00170073 15.5209 0.0596983C15.4132 0.117696 15.3306 0.213208 15.2886 0.328117L14.964 1.32699C14.9464 1.37598 14.9147 1.4187 14.8729 1.44979C14.8312 1.48088 14.7812 1.49897 14.7292 1.5018H13.2809C13.2277 1.5041 13.1753 1.48866 13.1319 1.45792C13.0885 1.42718 13.0566 1.38288 13.0411 1.33199L12.7065 0.323122C12.6637 0.210181 12.5814 0.116577 12.4749 0.0596437C12.3684 0.00271084 12.2448 -0.0136929 12.1271 0.0134704L11.5378 0.173291C11.4139 0.203132 11.306 0.279242 11.2364 0.386028C11.1667 0.492813 11.1406 0.622188 11.1632 0.747645C11.7526 4.00898 11.7126 3.74927 11.7326 3.90909Z" fill="#6A6B6F"/>
<path d="M18.455 10.2569L16.4572 5.67702C16.4157 5.56469 16.3823 5.44953 16.3573 5.33241C16.343 5.27048 16.3055 5.21637 16.2526 5.1811C16.1997 5.14584 16.1354 5.13207 16.0727 5.14262C15.3948 5.26039 14.708 5.31887 14.02 5.31742C13.332 5.31887 12.6451 5.26039 11.9673 5.14262C11.9047 5.13327 11.8409 5.14752 11.7883 5.1826C11.7357 5.21768 11.698 5.27108 11.6826 5.33241C11.6576 5.44228 11.6277 5.55216 11.5927 5.65704L9.545 10.2569C9.48554 10.4329 9.49407 10.6248 9.56893 10.7949C9.64379 10.9649 9.77956 11.1008 9.94955 11.1758C11.2331 11.7117 12.6091 11.9917 14 11.9999C15.3909 11.9917 16.7669 11.7117 18.0504 11.1758C18.2204 11.1008 18.3562 10.9649 18.4311 10.7949C18.5059 10.6248 18.5145 10.4329 18.455 10.2569V10.2569Z" fill="#6A6B6F"/>
</svg>
