<svg width="28" height="12" viewBox="0 0 28 12" fill="none" xmlns="http://www.w3.org/2000/svg">
<path d="M11.9826 3.90909C11.9903 3.96249 12.0148 4.01206 12.0525 4.05066C12.0902 4.08926 12.1392 4.11488 12.1924 4.12385C12.8725 4.2368 13.5606 4.29525 14.25 4.29865C14.9395 4.29511 15.6276 4.23665 16.3077 4.12385C16.3609 4.11488 16.4099 4.08926 16.4476 4.05066C16.4853 4.01206 16.5098 3.96249 16.5175 3.90909C16.5425 3.73928 16.5425 3.76925 17.0869 0.747645C17.1095 0.622188 17.0834 0.492813 17.0137 0.386028C16.9441 0.279242 16.8362 0.203132 16.7123 0.173291L16.1229 0.0134704C16.0039 -0.0147486 15.8787 0.00170073 15.7709 0.0596983C15.6632 0.117696 15.5806 0.213208 15.5386 0.328117L15.214 1.32699C15.1964 1.37598 15.1647 1.4187 15.1229 1.44979C15.0812 1.48088 15.0312 1.49897 14.9792 1.5018H13.5309C13.4777 1.5041 13.4253 1.48866 13.3819 1.45792C13.3385 1.42718 13.3066 1.38288 13.2911 1.33199L12.9565 0.323122C12.9137 0.210181 12.8314 0.116577 12.7249 0.0596437C12.6184 0.00271084 12.4948 -0.0136929 12.3771 0.0134704L11.7878 0.173291C11.6639 0.203132 11.556 0.279242 11.4864 0.386028C11.4167 0.492813 11.3906 0.622188 11.4132 0.747645C12.0026 4.00898 11.9626 3.74927 11.9826 3.90909Z" fill="white"/>
<path d="M18.705 10.2569L16.7072 5.67702C16.6657 5.56469 16.6323 5.44953 16.6073 5.33241C16.593 5.27048 16.5555 5.21637 16.5026 5.1811C16.4497 5.14584 16.3854 5.13207 16.3227 5.14262C15.6448 5.26039 14.958 5.31887 14.27 5.31742C13.582 5.31887 12.8951 5.26039 12.2173 5.14262C12.1547 5.13327 12.0909 5.14752 12.0383 5.1826C11.9857 5.21768 11.948 5.27108 11.9326 5.33241C11.9076 5.44228 11.8777 5.55216 11.8427 5.65704L9.795 10.2569C9.73554 10.4329 9.74407 10.6248 9.81893 10.7949C9.89379 10.9649 10.0296 11.1008 10.1995 11.1758C11.4831 11.7117 12.8591 11.9917 14.25 11.9999C15.6409 11.9917 17.0169 11.7117 18.3004 11.1758C18.4704 11.1008 18.6062 10.9649 18.6811 10.7949C18.7559 10.6248 18.7645 10.4329 18.705 10.2569Z" fill="white"/>
</svg>
