<svg width="16" height="16" viewBox="0 0 16 16" fill="none" xmlns="http://www.w3.org/2000/svg">
<path fill-rule="evenodd" clip-rule="evenodd" d="M4.66667 0.5H3C1.61929 0.5 0.5 1.61929 0.5 3V13C0.5 14.3807 1.61929 15.5 3 15.5H4.66667C6.04738 15.5 7.16667 14.3807 7.16667 13V3C7.16667 1.61929 6.04738 0.5 4.66667 0.5ZM3 2.16667H4.66667C5.1269 2.16667 5.5 2.53976 5.5 3V13C5.5 13.4602 5.1269 13.8333 4.66667 13.8333H3C2.53976 13.8333 2.16667 13.4602 2.16667 13V3C2.16667 2.53976 2.53976 2.16667 3 2.16667ZM13 0.5H11.3333C9.95262 0.5 8.83333 1.61929 8.83333 3V8C8.83333 9.38071 9.95262 10.5 11.3333 10.5H13C14.3807 10.5 15.5 9.38071 15.5 8V3C15.5 1.61929 14.3807 0.5 13 0.5ZM11.3333 2.16667H13C13.4602 2.16667 13.8333 2.53976 13.8333 3V8C13.8333 8.46024 13.4602 8.83333 13 8.83333H11.3333C10.8731 8.83333 10.5 8.46024 10.5 8V3C10.5 2.53976 10.8731 2.16667 11.3333 2.16667Z" fill="#D3D3D5"/>
</svg>
