<svg xmlns="http://www.w3.org/2000/svg" width="437.332" height="512.003" viewBox="0 0 437.332 512.003">
  <g id="apple" transform="translate(-37.336)">
    <g id="Group_2" data-name="Group 2">
      <g id="Group_1" data-name="Group 1">
        <path id="Path_7" data-name="Path 7" d="M351.98,0c-27.3,1.888-59.2,19.36-77.792,42.112-16.96,20.64-30.912,51.3-25.472,81.088,29.824.928,60.64-16.96,78.5-40.1C343.916,61.568,356.556,31.1,351.98,0Z" fill="#fff"/>
      </g>
    </g>
    <g id="Group_4" data-name="Group 4">
      <g id="Group_3" data-name="Group 3">
        <path id="Path_8" data-name="Path 8" d="M459.852,171.776c-26.208-32.864-63.04-51.936-97.824-51.936-45.92,0-65.344,21.984-97.248,21.984-32.9,0-57.888-21.92-97.6-21.92-39.008,0-80.544,23.84-106.88,64.608C23.276,241.92,29.612,349.856,89.612,441.792c21.472,32.9,50.144,69.888,87.648,70.208,33.376.32,42.784-21.408,88-21.632,45.216-.256,53.792,21.92,87.1,21.568,37.536-.288,67.776-41.28,89.248-74.176,15.392-23.584,21.12-35.456,33.056-62.08C387.852,342.624,373.932,219.168,459.852,171.776Z" fill="#fff"/>
      </g>
    </g>
  </g>
</svg>
