<svg width="24" height="24" viewBox="0 0 24 24" fill="none" xmlns="http://www.w3.org/2000/svg">
<path fill-rule="evenodd" clip-rule="evenodd" d="M12 2C13.4201 2 14.6098 2.9868 14.9207 4.31213L14.929 4.355C17.2397 5.65605 18.7615 8.02134 18.9814 10.7107L19 11V13.931L19.0214 14.0674C19.1711 14.8732 19.6444 15.5831 20.3306 16.0312L20.4927 16.1298C21.3524 16.6167 21.0533 17.8964 20.1155 17.9941L20 18H16C16 20.2091 14.2091 22 12 22C9.85776 22 8.10887 20.316 8.00485 18.1996L7.99995 18H3.99995C2.97242 18 2.61307 16.6362 3.5072 16.1298C4.28078 15.6918 4.8173 14.9351 4.97846 14.0674L4.99995 13.924L5.00105 10.9531C5.12634 8.28395 6.57286 5.87404 8.8224 4.50073L9.06995 4.355L9.07918 4.31213C9.37715 3.04202 10.4822 2.08282 11.8237 2.00509L12 2ZM9.99995 18C9.99995 19.1046 10.8954 20 12 20C13.0543 20 13.9181 19.1841 13.9945 18.1493L14 18H9.99995ZM15 16H8.99995H6.36895L6.51148 15.7345C6.759 15.2337 6.92386 14.6889 6.9927 14.1202L6.99995 14V11L7.01636 10.7598C7.2015 8.68542 8.49585 6.81737 10.435 5.9L10.53 5.84809L10.6234 5.78214C10.7122 5.7115 10.7868 5.62733 10.8455 5.53412L10.8983 5.43977C10.9471 5.34023 10.9799 5.23139 10.9932 5.11662L11.0067 4.88338C11.0644 4.38604 11.4871 4 12 4C12.5522 4 13 4.44772 13 5L13.0081 5.12741C13.0511 5.46262 13.2617 5.7571 13.5725 5.90403C15.5783 6.8525 16.897 8.83053 17.0011 11.0469L17 14L17.0072 14.1202L17.0434 14.3674C17.142 14.9405 17.3386 15.4855 17.619 15.9812L17.63 16H15Z" fill="#818181"/>
</svg>
