<svg width="24" height="24" viewBox="0 0 24 24" fill="none" xmlns="http://www.w3.org/2000/svg">
<path fill-rule="evenodd" clip-rule="evenodd" d="M16.9949 4.82373C16.9036 3.24892 15.5977 2 14 2H9.99997L9.8237 2.00509C8.24889 2.09634 6.99997 3.40232 6.99997 5V6H4.99997C3.34312 6 1.99997 7.34315 1.99997 9V12.9784C1.99968 12.9923 1.99968 13.0062 1.99997 13.02V18C1.99997 19.6569 3.34312 21 4.99997 21H19C20.6568 21 22 19.6569 22 18V13.02C22.0003 13.0061 22.0003 12.9923 22 12.9785V9C22 7.34315 20.6568 6 19 6H17V5L16.9949 4.82373ZM20 12.3731V9C20 8.44772 19.5523 8 19 8H16H7.99997H4.99997C4.44769 8 3.99997 8.44772 3.99997 9V12.3731C9.07236 14.7282 14.9276 14.7282 20 12.3731ZM3.99997 14.556V18C3.99997 18.5523 4.44769 19 4.99997 19H19C19.5523 19 20 18.5523 20 18V14.556C14.8773 16.6672 9.12263 16.6672 3.99997 14.556ZM15 6V5C15 4.48716 14.6139 4.06449 14.1166 4.00673L14 4H9.99997C9.48714 4 9.06447 4.38604 9.0067 4.88338L8.99997 5V6H15ZM12 11C12.5128 11 12.9355 11.386 12.9932 11.8834L13 12.01C13 12.5623 12.5523 13.01 12 13.01C11.4871 13.01 11.0645 12.624 11.0067 12.1266L11 12C11 11.4477 11.4477 11 12 11Z" fill="#818181"/>
</svg>
