<svg width="24" height="24" viewBox="0 0 24 24" fill="none" xmlns="http://www.w3.org/2000/svg">
<path fill-rule="evenodd" clip-rule="evenodd" d="M20.18 20H3.81997C3.0036 20.0137 2.27804 19.482 2.04514 18.6994C1.81223 17.9168 2.12899 17.0749 2.81997 16.64L11 11.45V10.87C8.98692 10.3502 7.70768 8.37495 8.05676 6.32539C8.40584 4.27584 10.2669 2.83542 12.3385 3.01136C14.4101 3.18729 16.0015 4.92092 16 6.99999C16 7.55228 15.5523 7.99999 15 7.99999C14.4477 7.99999 14 7.55228 14 6.99999C14 5.89542 13.1045 4.99999 12 4.99999C10.8954 4.99999 9.99997 5.89542 9.99997 6.99999C9.99997 8.10456 10.8954 8.99999 12 8.99999C12.5523 8.99999 13 9.44771 13 9.99999V11.45L21.16 16.64C21.851 17.0749 22.1677 17.9168 21.9348 18.6994C21.7019 19.482 20.9763 20.0137 20.16 20H20.18ZM4.42997 18H19.57L12 13.19L4.42997 18Z" fill="#818181"/>
</svg>
