<svg width="24" height="24" viewBox="0 0 24 24" fill="none" xmlns="http://www.w3.org/2000/svg">
<path fill-rule="evenodd" clip-rule="evenodd" d="M8 3H6C4.34315 3 3 4.34315 3 6V18C3 19.6569 4.34315 21 6 21H8C9.65685 21 11 19.6569 11 18V6C11 4.34315 9.65685 3 8 3ZM6 5H8C8.55228 5 9 5.44772 9 6V18C9 18.5523 8.55228 19 8 19H6C5.44772 19 5 18.5523 5 18V6C5 5.44772 5.44772 5 6 5ZM18 3H16C14.3431 3 13 4.34315 13 6V12C13 13.6569 14.3431 15 16 15H18C19.6569 15 21 13.6569 21 12V6C21 4.34315 19.6569 3 18 3ZM16 5H18C18.5523 5 19 5.44772 19 6V12C19 12.5523 18.5523 13 18 13H16C15.4477 13 15 12.5523 15 12V6C15 5.44772 15.4477 5 16 5Z" fill="#818181"/>
</svg>
