<svg width="24" height="24" viewBox="0 0 24 24" fill="none" xmlns="http://www.w3.org/2000/svg">
<path fill-rule="evenodd" clip-rule="evenodd" d="M14.9949 5.82373C14.9037 4.24892 13.5977 3 12 3H5L4.82373 3.00509C3.24892 3.09634 2 4.40232 2 6V18L2.00509 18.1763C2.09634 19.7511 3.40232 21 5 21H12L12.1763 20.9949C13.7511 20.9037 15 19.5977 15 18V16L14.9933 15.8834C14.9355 15.386 14.5128 15 14 15C13.4477 15 13 15.4477 13 16V18L12.9933 18.1166C12.9355 18.614 12.5128 19 12 19H5L4.88338 18.9933C4.38604 18.9355 4 18.5128 4 18V6L4.00673 5.88338C4.06449 5.38604 4.48716 5 5 5H12L12.1166 5.00673C12.614 5.06449 13 5.48716 13 6V8L13.0067 8.11662C13.0645 8.61396 13.4872 9 14 9C14.5523 9 15 8.55228 15 8V6L14.9949 5.82373ZM10.7903 9.6129C11.0953 9.22061 11.0676 8.65338 10.7071 8.29289C10.3166 7.90237 9.68342 7.90237 9.29289 8.29289L6.29289 11.2929L6.21677 11.3775C5.99846 11.6479 5.95309 11.9812 6.03835 12.275L6.04372 12.2931L6.08075 12.3943L6.1556 12.5366C6.20469 12.6147 6.26443 12.6864 6.33368 12.7489L9.29289 15.7071L9.3871 15.7903C9.77939 16.0953 10.3466 16.0676 10.7071 15.7071C11.0976 15.3166 11.0976 14.6834 10.7071 14.2929L9.415 13H20L20.1166 12.9933C20.614 12.9355 21 12.5128 21 12L20.9933 11.8834C20.9355 11.386 20.5128 11 20 11H9.414L10.7071 9.70711L10.7903 9.6129Z" fill="#818181"/>
</svg>
