<svg width="104" height="24" viewBox="0 0 104 24" fill="none" xmlns="http://www.w3.org/2000/svg">
<path fill-rule="evenodd" clip-rule="evenodd" d="M19.2454 3.6001H2.04688V20.4001H19.2454V3.6001ZM18.6027 4.29764H2.76097V19.7723H18.6027V4.29764Z" fill="#D9D9D9"/>
<path fill-rule="evenodd" clip-rule="evenodd" d="M15.5376 7.29272H5.82812V16.7772H15.5376V7.29272ZM14.7503 8.06173H6.61538V16.0082H14.7503V8.06173Z" fill="#D9D9D9"/>
<path d="M24.4202 15.3952C25.3717 15.3952 26.131 14.9842 26.5518 14.2156L26.3414 14.1173C25.9663 14.7339 25.3168 15.0735 24.6215 15.0735C23.2401 15.0735 22.3893 13.9118 22.3893 12.0798C22.3893 10.2836 23.2309 9.06819 24.4934 9.06819C25.1338 9.06819 25.6919 9.30054 26.1127 9.79205L26.3231 9.63119C25.8748 9.08606 25.2436 8.80903 24.5483 8.80009C22.8467 8.79116 21.7031 10.1406 21.7031 12.1066C21.7031 14.0548 22.8284 15.4042 24.4202 15.3952Z" fill="white"/>
<path d="M27.3809 15.3059H27.6371L28.1585 13.6616H30.9031L31.4154 15.3059H32.0649L30.0431 8.88946H29.3936V8.89839L27.3809 15.3059ZM28.2317 13.4203L29.5308 9.30947L30.8207 13.4203H28.2317Z" fill="white"/>
<path d="M34.8991 15.4042C36.1799 15.4042 36.9118 14.5999 36.9118 13.6616C36.9118 11.7581 33.847 11.6776 33.847 10.2836C33.847 9.50608 34.3594 9.08606 34.9906 9.08606C35.6493 9.08606 36.0884 9.36309 36.2622 9.76524L36.491 9.66693C36.2897 9.22011 35.7316 8.86265 35.0363 8.86265C34.1306 8.86265 33.2341 9.46139 33.2341 10.3997C33.2341 12.2049 36.2988 12.1423 36.2988 13.885C36.2988 14.5195 35.8963 15.1629 34.9266 15.1629C34.277 15.1629 33.6275 14.8948 33.1792 14.2692L32.9779 14.4033C33.4537 15.0735 34.1489 15.4042 34.8991 15.4042Z" fill="white"/>
<path d="M37.8338 15.3059H38.0899L38.6114 13.6616H41.356L41.8683 15.3059H42.5178L40.496 8.88946H39.8465V8.89839L37.8338 15.3059ZM38.6846 13.4203L39.9837 9.30947L41.2736 13.4203H38.6846Z" fill="white"/>
<path d="M48.63 15.3148C50.0023 15.3237 50.7067 14.6714 50.7067 13.6079C50.7067 12.7858 50.0663 12.2228 49.2155 12.0172C49.9108 11.767 50.4231 11.2398 50.4231 10.4444C50.4231 9.60438 49.7187 8.88946 48.5294 8.88946H46.4527V15.3059L48.63 15.3148ZM47.0748 15.0735V12.187H48.566C49.5083 12.187 50.0938 12.9109 50.0938 13.6973C50.0938 14.4212 49.6181 15.0735 48.7032 15.0735H47.0748ZM47.0748 11.9457V9.13074H48.4379C49.307 9.13074 49.8102 9.66693 49.8102 10.5338C49.8102 11.2129 49.243 11.9457 48.4562 11.9457H47.0748Z" fill="white"/>
<path d="M52.1748 15.3059H56.0812V15.0646H52.7969V12.1781H55.2761V11.9368H52.7969V9.13074H55.8891V8.88946H52.1748V15.3059Z" fill="white"/>
<path d="M57.0867 15.3059H57.3429L57.8644 13.6616H60.6089L61.1212 15.3059H61.7708L59.7489 8.88946H59.0994V8.89839L57.0867 15.3059ZM57.9375 13.4203L59.2366 9.30947L60.5266 13.4203H57.9375Z" fill="white"/>
<path d="M65.3619 15.4042C66.7159 15.4042 67.4752 14.6267 67.4752 13.0628V8.88946H67.2282V13.1254C67.2282 14.439 66.5604 15.0735 65.3619 15.0735C64.2732 15.0735 63.6694 14.4033 63.6694 12.9466V8.88946H63.0565V13.1343C63.0565 14.6893 63.8798 15.4042 65.3619 15.4042Z" fill="white"/>
<path d="M77.071 15.3148H77.6839V8.88946H77.071L74.7747 14.7339L72.4876 8.88946H71.8655V15.3059H72.1125V9.64013L74.3356 15.3059H74.8296L77.071 9.58651V15.3148Z" fill="white"/>
<path d="M81.8136 15.3952C83.3597 15.3952 84.5673 13.9386 84.5673 12.1155C84.5673 10.221 83.3597 8.80009 81.8136 8.80009C80.2675 8.80009 79.0599 10.221 79.0599 12.1155C79.0599 13.9386 80.2675 15.3952 81.8136 15.3952ZM79.7461 12.0977C79.7461 10.3997 80.6518 9.06819 81.7953 9.06819C82.9572 9.06819 83.8812 10.4176 83.8812 12.1334C83.8812 13.8224 82.9663 15.1539 81.8228 15.1539C80.6609 15.1539 79.7461 13.8135 79.7461 12.0977Z" fill="white"/>
<path d="M85.758 15.3059H86.005V9.30054L89.6187 15.2969V15.3059H89.8657V8.88946H89.6187V14.1084L86.4716 8.88946H85.758V15.3059Z" fill="white"/>
<path d="M91.3375 15.3059H92.9568C94.6675 15.3059 95.8752 13.885 95.8752 12.0709C95.8752 10.2925 94.7133 8.88946 93.0483 8.88946H91.3375V15.3059ZM91.9596 15.0735V9.13074H92.9568C94.2833 9.13074 95.189 10.4265 95.189 12.1602C95.189 13.7509 94.3291 15.0735 93.0483 15.0735H91.9596Z" fill="white"/>
<path d="M97.1579 15.3059H101.064V15.0646H97.78V12.1781H100.259V11.9368H97.78V9.13074H100.872V8.88946H97.1579V15.3059Z" fill="white"/>
</svg>
