<svg width="10" height="10" viewBox="0 0 10 10" fill="none" xmlns="http://www.w3.org/2000/svg">
<path fill-rule="evenodd" clip-rule="evenodd" d="M6 2C6 0.89543 6.89543 0 8 0C9.10457 0 10 0.89543 10 2C10 3.10457 9.10457 4 8 4C7.39173 4 6.84689 3.72846 6.48007 3.29999L3.95966 4.59838C3.98611 4.72812 4 4.86244 4 5C4 5.13756 3.98611 5.27188 3.95966 5.40162L6.48007 6.70001C6.84689 6.27154 7.39173 6 8 6C9.10457 6 10 6.89543 10 8C10 9.10457 9.10457 10 8 10C6.89543 10 6 9.10457 6 8C6 7.86244 6.01389 7.72812 6.04034 7.59838L3.51993 6.29999C3.15311 6.72846 2.60827 7 2 7C0.89543 7 0 6.10457 0 5C0 3.89543 0.89543 3 2 3C2.60827 3 3.15311 3.27154 3.51993 3.70001L6.04034 2.40162C6.01389 2.27188 6 2.13756 6 2ZM2.9162 5.40135C2.91251 5.40779 2.90895 5.41435 2.90551 5.42102C2.89793 5.43574 2.89115 5.45066 2.88515 5.46573C2.71765 5.78343 2.38412 6 2 6C1.44772 6 1 5.55228 1 5C1 4.44772 1.44772 4 2 4C2.38412 4 2.71765 4.21657 2.88516 4.53427C2.89115 4.54934 2.89793 4.56426 2.90551 4.57898C2.90895 4.58565 2.91251 4.5922 2.9162 4.59865C2.97009 4.7215 3 4.85726 3 5C3 5.14274 2.97009 5.2785 2.9162 5.40135ZM7.0838 7.59865C7.02991 7.7215 7 7.85726 7 8C7 8.55228 7.44772 9 8 9C8.55228 9 9 8.55228 9 8C9 7.44772 8.55228 7 8 7C7.61588 7 7.28235 7.21657 7.11484 7.53427C7.10885 7.54934 7.10207 7.56426 7.09449 7.57898C7.09105 7.58565 7.08749 7.5922 7.0838 7.59865ZM8 3C7.61588 3 7.28235 2.78343 7.11484 2.46573C7.10885 2.45066 7.10207 2.43574 7.09449 2.42102C7.09105 2.41435 7.08749 2.4078 7.0838 2.40135C7.02991 2.2785 7 2.14274 7 2C7 1.44772 7.44772 1 8 1C8.55228 1 9 1.44772 9 2C9 2.55228 8.55228 3 8 3Z" fill="#A6A6AA"/>
</svg>
