<svg width="24" height="24" viewBox="0 0 24 24" fill="none" xmlns="http://www.w3.org/2000/svg">
<path fill-rule="evenodd" clip-rule="evenodd" d="M14.8834 3.00676L14.9778 3.00001L15.0904 3.0039L15.2035 3.02085L15.3162 3.05135L21.3162 5.05135C21.6874 5.17509 21.9488 5.50216 21.9933 5.88399L22 6.00003V11C22 11.5129 21.614 11.9355 21.1166 11.9933L21 12H19V19C19 20.0544 18.1841 20.9182 17.1493 20.9945L17 21H7C5.94564 21 5.08183 20.1842 5.00549 19.1493L5 19V12H3C2.48716 12 2.06449 11.614 2.00673 11.1167L2 11V6.00003C2 5.60873 2.22763 5.25734 2.57581 5.09442L2.68377 5.05135L8.68377 3.05135C9.3313 2.83551 10 3.31748 10 4.00003C10 5.1046 10.8954 6.00003 12 6.00003C13.0544 6.00003 13.9182 5.18416 13.9945 4.1493L14.0039 3.90968L14.0208 3.79657L14.0583 3.66278L14.1016 3.56026L14.152 3.46803L14.2197 3.37459L14.289 3.29503C14.3446 3.24122 14.4019 3.19515 14.4639 3.15572L14.5602 3.10168L14.6627 3.05833L14.7707 3.02644L14.8834 3.00676ZM15.778 5.31303L15.7714 5.33629C15.2214 6.88835 13.7405 8.00003 12 8.00003C10.2595 8.00003 8.77858 6.88835 8.22864 5.33629L8.221 5.31303L4 6.72003V10H6C6.51284 10 6.93551 10.3861 6.99327 10.8834L7 11V19H17V11C17 10.4872 17.386 10.0645 17.8834 10.0068L18 10H20V6.72003L15.778 5.31303Z" fill="#818181"/>
</svg>
