<svg width="24" height="24" viewBox="0 0 24 24" fill="none" xmlns="http://www.w3.org/2000/svg">
<path fill-rule="evenodd" clip-rule="evenodd" d="M6 2C6.51284 2 6.93551 2.38604 6.99327 2.88338L7 3V4.06888L20.0712 5.00254C20.6113 5.04111 21.015 5.49956 20.9997 6.02738L20.9899 6.14142L19.9899 13.1414C19.925 13.5962 19.5605 13.943 19.1134 13.9936L19 14H7V16H17C18.6569 16 20 17.3431 20 19C20 20.6569 18.6569 22 17 22C15.3431 22 14 20.6569 14 19C14 18.6494 14.0602 18.3128 14.1707 18H8.82929C8.93985 18.3128 9 18.6494 9 19C9 20.6569 7.65685 22 6 22C4.34315 22 3 20.6569 3 19C3 17.6938 3.83481 16.5825 5 16.1707V13V4H4C3.48716 4 3.06449 3.61396 3.00673 3.11662L3 3C3 2.48716 3.38604 2.06449 3.88338 2.00673L4 2H6ZM7 12H18.133L18.858 6.921L7 6.07398V12ZM16 19C16 18.4477 16.4477 18 17 18C17.5523 18 18 18.4477 18 19C18 19.5523 17.5523 20 17 20C16.4477 20 16 19.5523 16 19ZM5 19C5 18.4477 5.44772 18 6 18C6.55228 18 7 18.4477 7 19C7 19.5523 6.55228 20 6 20C5.44772 20 5 19.5523 5 19Z" fill="#818181"/>
</svg>
