<svg width="24" height="24" viewBox="0 0 24 24" fill="none" xmlns="http://www.w3.org/2000/svg">
<path fill-rule="evenodd" clip-rule="evenodd" d="M4 7C4 4.23858 6.23858 2 9 2C11.7614 2 14 4.23858 14 7C14 9.76142 11.7614 12 9 12C6.23858 12 4 9.76142 4 7ZM12 7C12 5.34315 10.6569 4 9 4C7.34315 4 6 5.34315 6 7C6 8.65685 7.34315 10 9 10C10.6569 10 12 8.65685 12 7ZM11 14C13.6888 14 15.8818 16.1223 15.9954 18.7831L16 19V21C16 21.5523 15.5523 22 15 22C14.4872 22 14.0645 21.614 14.0067 21.1166L14 21V19C14 17.4023 12.7511 16.0963 11.1763 16.0051L11 16H7C5.40232 16 4.09634 17.2489 4.00509 18.8237L4 19V21C4 21.5523 3.55228 22 3 22C2.48716 22 2.06449 21.614 2.00673 21.1166L2 21V19C2 16.3112 4.12231 14.1182 6.78311 14.0046L7 14H11ZM22.7071 8.29289C22.3166 7.90237 21.6834 7.90237 21.2929 8.29289L18 11.585L16.7071 10.2929L16.6129 10.2097C16.2206 9.90468 15.6534 9.93241 15.2929 10.2929C14.9024 10.6834 14.9024 11.3166 15.2929 11.7071L17.2929 13.7071L17.3871 13.7903C17.7794 14.0953 18.3466 14.0676 18.7071 13.7071L22.7071 9.70711L22.7903 9.6129C23.0953 9.22061 23.0676 8.65338 22.7071 8.29289Z" fill="#818181"/>
</svg>
