<svg width="150" height="150" viewBox="0 0 150 150" fill="none" xmlns="http://www.w3.org/2000/svg">
<rect width="150" height="150" fill="white"/>
<path d="M1.00659 149.007V1.00671H149.007V149.007H1.00659ZM130.943 19.081H19.0697V130.922H130.943V19.081Z" fill="#0F0F10"/>
<path d="M129.41 129.409H20.603V20.5846H129.41V129.409ZM109.485 109.502V40.531H40.5282V109.502H109.495H109.485Z" fill="#0F0F10"/>
<path d="M42.042 107.969V42.0248H107.981V107.969H42.042ZM102.624 65.5562H48.5742V66.6417H102.614V65.5562H102.624ZM48.7435 90.1233C48.6439 93.9971 48.5443 97.841 48.4547 101.705H49.7791C49.8388 99.3247 49.8985 96.9746 49.9583 94.6244C49.9882 94.6244 50.0081 94.6244 50.038 94.6244C50.5956 96.9846 51.1632 99.3447 51.7208 101.705H52.7564C53.324 99.3447 53.8816 97.0144 54.4492 94.6842C54.5189 94.6842 54.5985 94.6941 54.6682 94.7041V101.705H56.0424C55.9428 97.831 55.8432 93.9971 55.7437 90.1432H54.2899C53.6127 93.0809 52.9356 95.9987 52.2187 99.0758C51.5117 95.9887 50.8346 93.0709 50.1674 90.1432H48.7335L48.7435 90.1233ZM48.5742 83.3517C49.7293 83.3517 50.8445 83.3915 51.9498 83.3417C53.1447 83.282 53.9214 82.6546 54.2002 81.4994C54.5886 79.8762 54.6085 78.3128 53.1945 77.1178C54.3496 76.0224 54.2899 74.7178 53.9214 73.3834C53.6924 72.5469 53.085 71.9793 52.2386 71.8797C51.0437 71.7403 49.8288 71.7503 48.5742 71.6905V83.3616V83.3517ZM79.8809 101.695V90.1333H78.5466V97.5721C78.5466 97.5721 78.4869 97.5721 78.447 97.5821C77.4214 95.0925 76.3958 92.593 75.3801 90.1133H74.2648V101.685H75.5593V94.0269C75.5593 94.0269 75.629 94.017 75.6589 94.007C76.7144 96.5763 77.7599 99.1355 78.8055 101.695H79.8809V101.695ZM86.2239 101.715C87.2396 101.715 88.2055 101.725 89.1714 101.715C90.7546 101.695 91.8699 100.868 91.9794 99.2949C92.1387 97.0941 92.1487 94.8634 92.0392 92.6627C91.9695 91.1888 91.1629 90.3623 89.7888 90.193C88.6237 90.0536 87.4388 90.1631 86.2239 90.1631V101.725V101.715ZM62.007 95.8891C62.007 96.8551 61.9672 97.821 62.007 98.777C62.0568 99.7828 62.2858 100.769 63.182 101.356C64.2674 102.063 65.4723 102.043 66.6273 101.545C67.6729 101.087 68.0712 100.121 68.1011 99.0658C68.1608 96.9746 68.1708 94.8734 68.1011 92.7822C68.0413 91.0096 67.0555 90.0934 65.2831 89.9739C63.4608 89.8544 62.3257 90.6511 62.0867 92.4535C61.9373 93.5788 62.017 95.8891 61.9871 95.8891H62.007ZM96.5798 71.7503C96.55 71.8299 96.5201 71.8698 96.5201 71.9195C96.5201 74.9369 96.5101 77.9443 96.5599 80.9617C96.5699 81.7882 96.9184 82.555 97.6553 83.043C99.7563 84.4272 102.405 83.1923 102.634 80.7028C102.654 80.5036 102.654 80.2945 102.654 80.0953C102.654 77.5061 102.654 74.917 102.654 72.3278C102.654 72.1486 102.634 71.9693 102.624 71.7702H101.2C101.2 72.0092 101.2 72.2083 101.2 72.4075C101.2 74.9668 101.2 77.5161 101.2 80.0754C101.2 80.4239 101.16 80.7824 101.081 81.131C100.921 81.8081 100.533 82.1368 99.8957 82.2065C98.6211 82.3459 98.0237 81.828 97.9739 80.5335C97.9639 80.2447 97.964 79.9559 97.964 79.6671C97.964 77.2472 97.964 74.8274 97.964 72.4075C97.964 72.1984 97.944 71.9793 97.9241 71.7602H96.5798V71.7503ZM54.5886 52.2918C54.4691 51.3955 54.4193 50.569 54.25 49.7624C54.1106 49.0952 53.6824 48.5773 53.0452 48.2786C50.8844 47.2628 48.6937 48.5275 48.6041 50.9076C48.5344 52.7797 48.5443 54.6618 48.5841 56.544C48.5941 57.1713 48.7335 57.8286 48.9625 58.4161C49.6795 60.3182 52.8062 60.2883 53.7223 59.1232C54.5786 58.0377 54.5089 56.783 54.499 55.5183H53.1149C53.0651 56.1954 53.0452 56.8427 52.9655 57.4701C52.856 58.2867 52.4477 58.6252 51.6411 58.6352C50.7051 58.6352 50.3068 58.3066 50.1475 57.3406C50.0977 57.0419 50.0678 56.7332 50.0579 56.4344C50.0579 54.7913 50.0479 53.1482 50.0579 51.5051C50.0579 51.1366 50.0977 50.7582 50.1674 50.3997C50.3367 49.5632 50.7848 49.2645 51.7706 49.3043C52.5074 49.3342 52.8759 49.6628 52.9755 50.4694C53.0551 51.0669 53.0651 51.6744 53.1149 52.3017H54.5985L54.5886 52.2918ZM83.8042 80.414C83.9934 81.4098 84.1826 82.3758 84.3718 83.3517H85.8455C85.019 79.448 84.2025 75.5942 83.386 71.7602H81.9123C81.0958 75.624 80.2892 79.4679 79.4627 83.3517H80.9165C81.1057 82.3758 81.2949 81.3998 81.4941 80.414H83.8042V80.414ZM70.7398 59.7406C69.9134 55.8469 69.0968 52.0129 68.2803 48.179H66.7966C65.9801 52.0428 65.1735 55.8768 64.357 59.7406H65.8108C66.01 58.7547 66.1992 57.7887 66.3884 56.8328H68.6985C68.8877 57.8186 69.067 58.7746 69.2562 59.7505H70.7299L70.7398 59.7406ZM102.813 59.7406C101.987 55.8369 101.17 51.993 100.354 48.1591H98.8801C98.0635 52.0129 97.257 55.8568 96.4404 59.7306H97.8942C98.0834 58.7547 98.2826 57.7788 98.4718 56.8128H100.782C100.971 57.7987 101.16 58.7746 101.35 59.7406H102.823H102.813ZM80.6576 56.5141C80.8169 57.1415 80.8966 57.7091 81.1057 58.2369C81.8326 60.0194 84.4813 60.5273 85.8157 59.1331C86.1443 58.7846 86.3832 58.2767 86.4828 57.8087C86.7915 56.4245 86.204 55.2892 85.268 54.3233C84.5411 53.5664 83.7544 52.8694 83.0076 52.1324C82.7487 51.8735 82.4898 51.5847 82.3205 51.2661C81.9023 50.4395 82.211 49.5831 82.9777 49.3541C83.9735 49.0454 84.6905 49.4437 84.9394 50.4495C85.029 50.798 85.0688 51.1665 85.1485 51.5648C85.5966 51.4453 85.9949 51.3457 86.4629 51.2163C86.3633 50.7184 86.3135 50.2702 86.1941 49.8321C85.9252 48.8661 85.2879 48.2388 84.2921 48.0794C83.1669 47.9002 82.0816 47.9798 81.285 48.9557C81.1057 49.1748 80.9663 49.4437 80.8966 49.7126C80.568 50.9574 80.8568 52.0528 81.7828 52.9689C82.5595 53.7457 83.4059 54.4627 84.1328 55.2793C84.551 55.7373 84.9095 56.3149 85.0987 56.9025C85.3576 57.719 84.9195 58.4161 84.2224 58.5854C83.3362 58.7945 82.6292 58.4261 82.3504 57.5497C82.211 57.1016 82.1413 56.6336 82.0318 56.1257C81.6036 56.2452 81.1854 56.3647 80.6477 56.5141H80.6576ZM98.183 101.695H102.624V100.48H99.6866V96.3173H102.057V95.0726H99.6966V91.3183H102.614V90.1333H98.183V101.695V101.695ZM66.5477 76.7294V72.9453H69.4752V71.7602H65.0739V83.3417H69.5051V82.1467H66.5377V77.9344H68.9176V76.7194H66.5477V76.7294Z" fill="#0F0F10"/>
<path d="M50.0479 82.1965V77.8148C50.6851 77.8447 51.3423 77.775 51.9298 77.9542C52.2883 78.0638 52.7165 78.5318 52.7762 78.9003C52.8957 79.6571 52.8459 80.4637 52.7762 81.2405C52.7265 81.7583 52.3381 82.067 51.8103 82.1168C51.2428 82.1566 50.6752 82.1765 50.0578 82.1965H50.0479Z" fill="#0F0F10"/>
<path d="M50.0579 76.6001V72.9952C50.9142 73.025 51.8204 72.7661 52.4676 73.5528C52.8958 74.0706 52.8858 75.5046 52.4676 76.0723C51.8403 76.9088 50.9242 76.4706 50.0678 76.6001H50.0579Z" fill="#0F0F10"/>
<path d="M87.7375 91.368C88.2852 91.368 88.7931 91.3381 89.3009 91.368C90.0278 91.4278 90.4958 91.846 90.5157 92.6228C90.5655 94.7837 90.5755 96.9546 90.5157 99.1156C90.4859 100.072 89.9481 100.46 88.9623 100.49C88.574 100.49 88.1856 100.49 87.7475 100.49V91.3581L87.7375 91.368Z" fill="#0F0F10"/>
<path d="M66.5575 99.3547C66.4778 100.311 65.9501 100.619 64.9145 100.58C64.088 100.55 63.5702 100.131 63.5503 99.2552C63.5005 97.0245 63.5005 94.7939 63.5503 92.5632C63.5702 91.6869 64.0581 91.2885 64.8647 91.2587C65.97 91.2089 66.4778 91.4977 66.5575 92.4736C66.6571 93.6088 66.6571 98.2195 66.5575 99.3647V99.3547Z" fill="#0F0F10"/>
<path d="M83.5551 79.1393H81.7229C82.0117 77.6754 82.2905 76.2315 82.5793 74.7975C82.6191 74.7975 82.6589 74.7975 82.6987 74.7975C82.9875 76.2315 83.2663 77.6655 83.5651 79.1493L83.5551 79.1393Z" fill="#0F0F10"/>
<path d="M66.6272 55.5482C66.9259 54.0246 67.2147 52.5508 67.5035 51.0869C67.5333 51.0869 67.5533 51.0869 67.5831 51.0869C67.8719 52.5607 68.1607 54.0346 68.4694 55.5582H66.6272V55.5482Z" fill="#0F0F10"/>
<path d="M100.543 55.5482H98.7007C98.9895 54.0545 99.2782 52.5806 99.577 51.1068C99.6068 51.1068 99.6367 51.1068 99.6666 51.1068C99.9553 52.5707 100.244 54.0445 100.543 55.5482Z" fill="#0F0F10"/>
</svg>
