<svg width="49" height="48" viewBox="0 0 49 48" fill="none" xmlns="http://www.w3.org/2000/svg">
<path d="M15.0632 26.9907C15.2585 25.3733 15.9219 24.4678 17.1719 23.5395C18.9605 22.2822 21.1947 22.9934 21.1947 22.9934V18.7744C21.7378 18.7606 22.2812 18.7928 22.8184 18.8707V24.3C22.8184 24.3 20.5849 23.5889 18.7964 24.8467C17.547 25.7744 16.8823 26.6806 16.6876 28.298C16.6815 29.1762 16.8464 30.3242 17.6053 31.3169C17.4177 31.2207 17.2264 31.111 17.0315 30.988C15.3596 29.8653 15.0551 28.181 15.0632 26.9907ZM32.0435 10.9736C30.8131 9.62536 30.3478 8.26411 30.1796 7.30786H31.7274C31.7274 7.30786 31.4188 9.81518 33.6679 12.2809L33.6991 12.314C33.0929 11.9328 32.537 11.4827 32.0435 10.9736ZM39.4996 14.796V20.1162C39.4996 20.1162 37.5245 20.0388 36.0628 19.667C34.0219 19.1469 32.7102 18.3493 32.7102 18.3493C32.7102 18.3493 31.804 17.7805 31.7308 17.7408V28.727C31.7308 29.3387 31.5632 30.8664 31.0525 32.1405C30.3858 33.8073 29.3569 34.9014 29.1676 35.125C29.1676 35.125 27.9162 36.6039 25.7085 37.5998C23.7185 38.4982 21.9713 38.4755 21.449 38.4982C21.449 38.4982 18.4287 38.6178 15.7109 36.8516C15.1232 36.4623 14.5746 36.0214 14.0723 35.5346L14.0858 35.5443C16.8043 37.3105 19.8239 37.1909 19.8239 37.1909C20.3469 37.1682 22.0941 37.1909 24.0834 36.2925C26.2891 35.2966 27.5425 33.8177 27.5425 33.8177C27.7297 33.5941 28.7634 32.5 29.4274 30.8326C29.9368 29.5591 30.1057 28.0308 30.1057 27.4191V16.4342C30.1789 16.4745 31.0844 17.0433 31.0844 17.0433C31.0844 17.0433 32.3968 17.8416 34.4377 18.361C35.9 18.7328 37.8745 18.8102 37.8745 18.8102V14.6413C38.55 14.7928 39.1259 14.8337 39.4996 14.796Z" fill="#FD355A"/>
<path d="M37.8761 14.6413V18.8089C37.8761 18.8089 35.9017 18.7315 34.4393 18.3597C32.3984 17.8396 31.086 17.042 31.086 17.042C31.086 17.042 30.1805 16.4732 30.1073 16.4329V27.4204C30.1073 28.0321 29.9397 29.5604 29.429 30.8339C28.7623 32.5013 27.7334 33.5954 27.5441 33.819C27.5441 33.819 26.2921 35.2979 24.085 36.2938C22.0957 37.1922 20.3485 37.1695 19.8255 37.1922C19.8255 37.1922 16.8059 37.3118 14.0874 35.5456L14.0739 35.5359C13.7869 35.2579 13.5167 34.9645 13.2647 34.657C12.3972 33.5993 11.8655 32.3486 11.7318 31.9917C11.7316 31.9902 11.7316 31.9886 11.7318 31.9871C11.5168 31.367 11.0651 29.8776 11.1268 28.4351C11.236 25.8901 12.1313 24.328 12.368 23.9367C12.995 22.8695 13.8104 21.9147 14.7779 21.1147C15.6317 20.4244 16.5995 19.8752 17.6415 19.4895C18.768 19.0367 19.9743 18.794 21.1956 18.7744V22.9934C21.1956 22.9934 18.9614 22.2848 17.1735 23.5395C15.9235 24.4678 15.2602 25.3733 15.0648 26.9907C15.0567 28.181 15.3612 29.8653 17.0318 30.9886C17.2267 31.1121 17.4179 31.2218 17.6056 31.3175C17.8974 31.6969 18.2526 32.0275 18.6569 32.2959C20.2888 33.3289 21.6562 33.401 23.4047 32.7302C24.5706 32.2816 25.4483 31.2707 25.8553 30.1507C26.111 29.4512 26.1076 28.7472 26.1076 28.0191V7.30786H30.1771C30.3453 8.26411 30.8106 9.62536 32.041 10.9736C32.5346 11.4827 33.0905 11.9328 33.6966 12.3141C33.8757 12.4993 34.7913 13.4153 35.9668 13.9776C36.5746 14.2682 37.2152 14.4909 37.8761 14.6413Z" fill="white"/>
<path d="M10.1113 30.6963V30.6995L10.2123 30.9732C10.2007 30.9414 10.1632 30.8445 10.1113 30.6963Z" fill="#33F3ED"/>
<path d="M17.641 19.4896C16.599 19.8752 15.6312 20.4244 14.7774 21.1147C13.8095 21.9165 12.9944 22.8733 12.3682 23.9425C12.1315 24.3326 11.2362 25.896 11.127 28.441C11.0653 29.8835 11.517 31.3728 11.732 31.993C11.7318 31.9945 11.7318 31.996 11.732 31.9976C11.8677 32.3512 12.3974 33.6019 13.2649 34.6628C13.5169 34.9704 13.787 35.2638 14.074 35.5417C13.1545 34.9322 12.3343 34.1952 11.6405 33.3549C10.7804 32.3063 10.25 31.0686 10.1117 30.7033C10.1115 30.7007 10.1115 30.6981 10.1117 30.6955V30.6909C9.89597 30.0714 9.44289 28.5814 9.50597 27.137C9.61517 24.592 10.5105 23.0298 10.7472 22.6385C11.3731 21.5692 12.1883 20.6123 13.1564 19.8107C14.01 19.1202 14.9778 18.5709 16.02 18.1855C16.67 17.927 17.3472 17.7363 18.0398 17.6167C19.0837 17.4421 20.1497 17.4269 21.1985 17.5719V18.7745C19.976 18.7937 18.7685 19.0364 17.641 19.4896Z" fill="#33F3ED"/>
<path d="M30.1797 7.30794H26.1102V28.0198C26.1102 28.7479 26.1102 29.45 25.8579 30.1514C25.4468 31.2708 24.5726 32.2817 23.4073 32.7302C21.6581 33.4037 20.2907 33.3289 18.6595 32.296C18.2545 32.0288 17.8984 31.6993 17.6055 31.3209C18.9952 32.0314 20.2392 32.0191 21.7802 31.4262C22.9447 30.9776 23.8204 29.9668 24.23 28.8467C24.4864 28.1472 24.483 27.4432 24.483 26.7158V6H30.1024C30.1024 6 30.0393 6.51486 30.1797 7.30794ZM37.8753 13.4888V14.6414C37.2156 14.4908 36.5761 14.2681 35.9694 13.9777C34.7939 13.4153 33.8783 12.4994 33.6992 12.3141C33.907 12.4449 34.1226 12.5638 34.3449 12.6704C35.774 13.3542 37.1814 13.5584 37.8753 13.4888Z" fill="#33F3ED"/>
</svg>
