<svg width="49" height="48" viewBox="0 0 49 48" fill="none" xmlns="http://www.w3.org/2000/svg">
<path fill-rule="evenodd" clip-rule="evenodd" d="M37.8222 18.1521C37.8339 18.452 37.8377 18.7516 37.8377 19.0514C37.8377 28.1409 31.4437 38.6342 19.7513 38.6342C16.1596 38.6342 12.8198 37.4895 10.0059 35.5407C10.5033 35.5953 11.0084 35.6362 11.5214 35.6362C14.4994 35.6362 17.2423 34.5322 19.418 32.6789C16.6363 32.638 14.2875 30.6347 13.4774 27.9093C13.8663 27.991 14.2668 28.032 14.6764 28.032C15.2539 28.032 15.8146 27.9504 16.3521 27.7868C13.4412 27.16 11.2488 24.38 11.2488 21.0413C11.2488 21.0004 11.2488 20.9867 11.2488 20.9595C12.1066 21.4637 13.0885 21.777 14.1311 21.8178C12.4231 20.5777 11.3004 18.4656 11.3004 16.0808C11.3004 14.827 11.6131 13.6414 12.1634 12.6193C15.2978 16.7893 19.9838 19.5285 25.2668 19.8147C25.1582 19.3104 25.1027 18.7791 25.1027 18.2476C25.1027 14.4456 27.9489 11.3657 31.4605 11.3657C33.2886 11.3657 34.9398 12.1971 36.0987 13.5326C37.5496 13.2328 38.9088 12.6605 40.1387 11.8701C39.662 13.4781 38.6555 14.827 37.3403 15.6719C38.6271 15.5083 39.8545 15.1407 40.9928 14.5956C40.1388 15.9719 39.0638 17.1846 37.8222 18.1521Z" fill="#1DA1F2"/>
</svg>
