<svg width="48" height="48" viewBox="0 0 48 48" fill="none" xmlns="http://www.w3.org/2000/svg">
<rect width="48" height="48" rx="24" fill="#525252"/>
<path d="M18.0776 31.27C17.0876 31.27 16.2626 31.012 15.6026 30.496C14.9486 29.98 14.4896 29.284 14.2256 28.408L16.3676 27.895C16.4336 28.261 16.6256 28.576 16.9436 28.84C17.2616 29.104 17.6126 29.236 17.9966 29.236C18.2486 29.236 18.5156 29.17 18.7976 29.038C19.0796 28.9 19.2896 28.681 19.4276 28.381C19.5116 28.189 19.5596 27.961 19.5716 27.697C19.5896 27.427 19.5986 27.115 19.5986 26.761V18.04H21.7946V26.761C21.7946 27.163 21.7916 27.517 21.7856 27.823C21.7856 28.123 21.7556 28.408 21.6956 28.678C21.6416 28.942 21.5306 29.215 21.3626 29.497C21.0086 30.109 20.5466 30.559 19.9766 30.847C19.4066 31.129 18.7736 31.27 18.0776 31.27ZM27.4192 31L23.3332 18.04H25.5652L28.9852 28.894L32.4502 18.04H34.6822L30.5962 31H27.4192Z" fill="white"/>
</svg>
